<svg width="65" height="64" viewBox="0 0 65 64" fill="none" xmlns="http://www.w3.org/2000/svg">
<g clip-path="url(#clip0_1_22)">
<g clip-path="url(#clip1_1_22)">
<g clip-path="url(#clip2_1_22)">
<path d="M9.854 24.6154H49.2386V39.3846H9.854V24.6154Z" fill="#954FFF"/>
<path d="M9.854 39.3846H49.2386V50.2154C49.2386 52.3905 47.4753 54.1539 45.3002 54.1539H13.7925C11.6174 54.1539 9.854 52.3905 9.854 50.2154V39.3846Z" fill="#BD3EFF"/>
<path d="M9.854 13.7846C9.854 11.6095 11.6174 9.84613 13.7925 9.84613H45.3002C47.4753 9.84613 49.2386 11.6095 49.2386 13.7846V24.6154H9.854V13.7846Z" fill="#6D60FF"/>
<path d="M26.0772 14.7692C26.8829 14.7692 27.6137 15.2416 27.9448 15.9763L32.6808 26.4893C33.1171 27.4578 32.4087 28.5538 31.3465 28.5538C30.7603 28.5538 30.2308 28.2041 30.0006 27.665L29.0374 25.409H23.0583L22.1114 27.6983C21.8973 28.2161 21.3921 28.5538 20.8317 28.5538C19.8333 28.5538 19.163 27.5295 19.5626 26.6146L24.2001 15.9976C24.526 15.2515 25.2629 14.7692 26.0772 14.7692ZM28.0513 23.0739L25.9953 18.2342L24.0024 23.0739H28.0513Z" fill="white"/>
<path d="M38.4077 27.0328C38.4077 27.8729 37.7267 28.5538 36.8867 28.5538C36.0467 28.5538 35.3657 27.8729 35.3657 27.0328V16.2903C35.3657 15.4502 36.0467 14.7692 36.8867 14.7692C37.7267 14.7692 38.4077 15.4502 38.4077 16.2903V27.0328Z" fill="white"/>
<path d="M37.4231 43.8154C37.4231 42.4559 36.321 41.3538 34.9615 41.3538C33.6021 41.3538 32.5 42.4559 32.5 43.8154V46.7692C32.5 48.1287 33.6021 49.2307 34.9615 49.2307C36.321 49.2307 37.4231 48.1287 37.4231 46.7692V43.8154Z" fill="#ECC8FF"/>
<g filter="url(#filter0_d_1_22)">
<path fill-rule="evenodd" clip-rule="evenodd" d="M42.8385 37.4154C38.2163 37.4154 34.4692 41.1625 34.4692 45.7845C34.4692 50.4067 38.2163 54.1538 42.8385 54.1538H49.1431L53.511 57.9221C53.961 58.3103 54.6589 57.9906 54.6589 57.3964V53.6157C57.8208 52.4204 60.0692 49.3651 60.0692 45.7845C60.0692 41.1625 56.3222 37.4154 51.7 37.4154H42.8385Z" fill="white"/>
</g>
<path fill-rule="evenodd" clip-rule="evenodd" d="M33.9771 45.7846C33.9771 40.8905 37.9445 36.9231 42.8386 36.9231H51.7001C56.5943 36.9231 60.5617 40.8905 60.5617 45.7846C60.5617 49.4552 58.3301 52.6035 55.1513 53.9489V57.3966C55.1513 58.4121 53.9585 58.9584 53.1896 58.2951L48.9602 54.6462H42.8386C37.9445 54.6462 33.9771 50.6788 33.9771 45.7846ZM49.1432 54.1539H42.8386C38.2164 54.1539 34.4694 50.4068 34.4694 45.7846C34.4694 41.1625 38.2164 37.4154 42.8386 37.4154H51.7001C56.3223 37.4154 60.0694 41.1625 60.0694 45.7846C60.0694 49.3652 57.8209 52.4205 54.659 53.6158V57.3966C54.659 57.9908 53.9611 58.3104 53.5111 57.9223L49.1432 54.1539Z" fill="#ECC8FF"/>
<path d="M51.2077 42.3384H41.3616V48.2461H51.2077V42.3384Z" fill="#ECC8FF"/>
<path d="M41.3616 48.2461C42.9929 48.2461 44.3154 46.9237 44.3154 45.2923C44.3154 43.6609 42.9929 42.3384 41.3616 42.3384C39.7302 42.3384 38.4077 43.6609 38.4077 45.2923C38.4077 46.9237 39.7302 48.2461 41.3616 48.2461Z" fill="#BD3EFF"/>
<path d="M51.2078 48.2461C52.8391 48.2461 54.1616 46.9237 54.1616 45.2923C54.1616 43.6609 52.8391 42.3384 51.2078 42.3384C49.5764 42.3384 48.2539 43.6609 48.2539 45.2923C48.2539 46.9237 49.5764 48.2461 51.2078 48.2461Z" fill="#BD3EFF"/>
<path d="M63.0232 44.3077C63.0232 42.6763 61.7007 41.3538 60.0693 41.3538C58.438 41.3538 57.1155 42.6763 57.1155 44.3077V46.2769C57.1155 47.9083 58.438 49.2307 60.0693 49.2307C61.7007 49.2307 63.0232 47.9083 63.0232 46.2769V44.3077Z" fill="#ECC8FF"/>
<path d="M30.2474 34.4464C30.3302 34.1631 30.7316 34.1631 30.8144 34.4464L31.1045 35.4384C31.4412 36.5896 32.3414 37.4898 33.4926 37.8265L34.4845 38.1167C34.7679 38.1995 34.7679 38.6008 34.4845 38.6836L33.4926 38.9738C32.3414 39.3104 31.4412 40.2106 31.1045 41.3618L30.8144 42.3538C30.7316 42.6371 30.3302 42.6371 30.2474 42.3538L29.9573 41.3618C29.6206 40.2106 28.7204 39.3104 27.5692 38.9738L26.5773 38.6836C26.2939 38.6008 26.2939 38.1995 26.5773 38.1167L27.5692 37.8265C28.7204 37.4898 29.6206 36.5896 29.9573 35.4384L30.2474 34.4464Z" fill="white"/>
</g>
</g>
</g>
<defs>
<filter id="filter0_d_1_22" x="31.5154" y="35.4462" width="33.477" height="28.5536" filterUnits="userSpaceOnUse" color-interpolation-filters="sRGB">
<feFlood flood-opacity="0" result="BackgroundImageFix"/>
<feColorMatrix in="SourceAlpha" type="matrix" values="0 0 0 0 0 0 0 0 0 0 0 0 0 0 0 0 0 0 127 0" result="hardAlpha"/>
<feOffset dx="0.984615" dy="1.96923"/>
<feGaussianBlur stdDeviation="1.96923"/>
<feComposite in2="hardAlpha" operator="out"/>
<feColorMatrix type="matrix" values="0 0 0 0 0.483579 0 0 0 0 0.17379 0 0 0 0 0.629362 0 0 0 0.4 0"/>
<feBlend mode="normal" in2="BackgroundImageFix" result="effect1_dropShadow_1_22"/>
<feBlend mode="normal" in="SourceGraphic" in2="effect1_dropShadow_1_22" result="shape"/>
</filter>
<clipPath id="clip0_1_22">
<rect width="65" height="64" fill="white"/>
</clipPath>
<clipPath id="clip1_1_22">
<rect width="65" height="64" fill="white"/>
</clipPath>
<clipPath id="clip2_1_22">
<rect width="64.9846" height="64" fill="white" transform="translate(0.0078125)"/>
</clipPath>
</defs>
</svg>
