<svg width="65" height="65" viewBox="0 0 65 65" fill="none" xmlns="http://www.w3.org/2000/svg">
<g clip-path="url(#clip0_1_1140)">
<g clip-path="url(#clip1_1_1140)">
<path d="M12.5862 12.8493C12.0885 10.9766 13.5002 9.14062 15.4379 9.14062H49.564C51.5017 9.14062 52.9134 10.9766 52.4156 12.8493L51.4234 16.5821C48.6508 27.013 48.6508 37.987 51.4234 48.4179L52.4156 52.1507C52.9134 54.0234 51.5017 55.8594 49.564 55.8594H15.4379C13.5002 55.8594 12.0885 54.0234 12.5862 52.1507L13.5785 48.4179C16.351 37.987 16.351 27.013 13.5785 16.5821L12.5862 12.8493Z" fill="#A5F0E4"/>
<g filter="url(#filter0_d_1_1140)">
<path d="M15.9332 11.476C15.6086 10.3014 16.4922 9.14062 17.7107 9.14062H47.2894C48.5079 9.14062 49.3915 10.3014 49.0669 11.476L47.8177 15.9969C44.8336 26.7967 44.8336 38.2033 47.8177 49.0031L49.0669 53.524C49.3915 54.6986 48.5079 55.8594 47.2894 55.8594H17.7107C16.4922 55.8594 15.6086 54.6986 15.9332 53.524L17.1824 49.0031C20.1665 38.2033 20.1665 26.7967 17.1824 15.9969L15.9332 11.476Z" fill="url(#paint0_linear_1_1140)"/>
</g>
<path d="M33.5167 36.1283L36.6812 31.7772C37.3015 30.9243 38.5726 30.9252 39.193 31.7781L42.3558 36.1271C43.1025 37.1538 42.3691 38.5939 41.0996 38.5939H34.7739C33.5043 38.5939 32.77 37.155 33.5167 36.1283Z" fill="white"/>
<path d="M22.3115 36.2273L27.6845 27.5284C28.2914 26.5457 29.7195 26.5474 30.3264 27.5301L37.1597 38.5936H23.6352C22.4188 38.5936 21.6724 37.2622 22.3115 36.2273Z" fill="white"/>
<path d="M35.2182 30.0505C36.2906 30.0505 37.1599 29.1812 37.1599 28.1089C37.1599 27.0365 36.2906 26.1672 35.2182 26.1672C34.1459 26.1672 33.2766 27.0365 33.2766 28.1089C33.2766 29.1812 34.1459 30.0505 35.2182 30.0505Z" fill="white"/>
<path d="M6.68091 16.5173C11.2133 26.6904 11.2133 38.3096 6.68091 48.4828M58.3174 16.5173C53.785 26.6904 53.785 38.3096 58.3174 48.4828" stroke="#2AAA93" stroke-width="3.55469" stroke-linecap="round" stroke-linejoin="round"/>
</g>
</g>
<defs>
<filter id="filter0_d_1_1140" x="12.8186" y="7.10938" width="39.3628" height="52.8125" filterUnits="userSpaceOnUse" color-interpolation-filters="sRGB">
<feFlood flood-opacity="0" result="BackgroundImageFix"/>
<feColorMatrix in="SourceAlpha" type="matrix" values="0 0 0 0 0 0 0 0 0 0 0 0 0 0 0 0 0 0 127 0" result="hardAlpha"/>
<feOffset dy="1.01562"/>
<feGaussianBlur stdDeviation="1.52344"/>
<feComposite in2="hardAlpha" operator="out"/>
<feColorMatrix type="matrix" values="0 0 0 0 0.113725 0 0 0 0 0.509804 0 0 0 0 0.286275 0 0 0 0.4 0"/>
<feBlend mode="normal" in2="BackgroundImageFix" result="effect1_dropShadow_1_1140"/>
<feBlend mode="normal" in="SourceGraphic" in2="effect1_dropShadow_1_1140" result="shape"/>
</filter>
<linearGradient id="paint0_linear_1_1140" x1="32.5" y1="9.14062" x2="32.5" y2="55.8594" gradientUnits="userSpaceOnUse">
<stop stop-color="#30C0A8"/>
<stop offset="1" stop-color="#2AAA93"/>
</linearGradient>
<clipPath id="clip0_1_1140">
<rect width="65" height="65" fill="white"/>
</clipPath>
<clipPath id="clip1_1_1140">
<rect width="65" height="65" fill="white"/>
</clipPath>
</defs>
</svg>
