<svg width="66" height="65" viewBox="0 0 66 65" fill="none" xmlns="http://www.w3.org/2000/svg">
<g clip-path="url(#clip0_1_992)">
<g clip-path="url(#clip1_1_992)">
<path d="M12.7762 12.8493C12.2784 10.9766 13.6901 9.14062 15.6278 9.14062H49.7539C51.6917 9.14062 53.1034 10.9766 52.6055 12.8493L51.6133 16.5821C48.8407 27.013 48.8407 37.987 51.6133 48.4179L52.6055 52.1507C53.1034 54.0234 51.6917 55.8594 49.7539 55.8594H15.6278C13.6901 55.8594 12.2784 54.0234 12.7762 52.1507L13.7684 48.4179C16.541 37.987 16.541 27.013 13.7684 16.5821L12.7762 12.8493Z" fill="#FFDCB7"/>
<g filter="url(#filter0_d_1_992)">
<path d="M16.1231 11.476C15.7985 10.3014 16.6821 9.14062 17.9007 9.14062H47.4793C48.6979 9.14062 49.5815 10.3014 49.2569 11.476L48.0076 15.9969C45.0235 26.7967 45.0235 38.2033 48.0076 49.0031L49.2569 53.524C49.5815 54.6986 48.6979 55.8594 47.4793 55.8594H17.9007C16.6821 55.8594 15.7985 54.6986 16.1231 53.524L17.3723 49.0031C20.3564 38.2033 20.3564 26.7967 17.3723 15.9969L16.1231 11.476Z" fill="url(#paint0_linear_1_992)"/>
</g>
<path d="M6.87085 16.5173C11.4033 26.6904 11.4033 38.3096 6.87085 48.4828M58.5073 16.5173C53.9749 26.6904 53.9749 38.3096 58.5073 48.4828" stroke="#F28514" stroke-width="3.55469" stroke-linecap="round" stroke-linejoin="round"/>
<path d="M40.476 32.5H24.9031" stroke="white" stroke-width="2.59549" stroke-linecap="round" stroke-linejoin="round"/>
<path d="M40.476 26.0115H24.9031" stroke="white" stroke-width="2.59549" stroke-linecap="round" stroke-linejoin="round"/>
<path d="M33.9873 38.9885H24.9031" stroke="white" stroke-width="2.59549" stroke-linecap="round" stroke-linejoin="round"/>
</g>
</g>
<defs>
<filter id="filter0_d_1_992" x="13.0085" y="7.10938" width="39.3628" height="52.8125" filterUnits="userSpaceOnUse" color-interpolation-filters="sRGB">
<feFlood flood-opacity="0" result="BackgroundImageFix"/>
<feColorMatrix in="SourceAlpha" type="matrix" values="0 0 0 0 0 0 0 0 0 0 0 0 0 0 0 0 0 0 127 0" result="hardAlpha"/>
<feOffset dy="1.01562"/>
<feGaussianBlur stdDeviation="1.52344"/>
<feComposite in2="hardAlpha" operator="out"/>
<feColorMatrix type="matrix" values="0 0 0 0 0.854902 0 0 0 0 0.4 0 0 0 0 0.239216 0 0 0 0.4 0"/>
<feBlend mode="normal" in2="BackgroundImageFix" result="effect1_dropShadow_1_992"/>
<feBlend mode="normal" in="SourceGraphic" in2="effect1_dropShadow_1_992" result="shape"/>
</filter>
<linearGradient id="paint0_linear_1_992" x1="32.69" y1="9.14062" x2="32.69" y2="55.8594" gradientUnits="userSpaceOnUse">
<stop stop-color="#FF9E3B"/>
<stop offset="1" stop-color="#F28514"/>
</linearGradient>
<clipPath id="clip0_1_992">
<rect width="65" height="65" fill="white" transform="translate(0.189941)"/>
</clipPath>
<clipPath id="clip1_1_992">
<rect width="65" height="65" fill="white" transform="translate(0.189941)"/>
</clipPath>
</defs>
</svg>
