<svg width="65" height="65" viewBox="0 0 65 65" fill="none" xmlns="http://www.w3.org/2000/svg">
<g clip-path="url(#clip0_1_1050)">
<g clip-path="url(#clip1_1_1050)">
<path d="M11.1719 12.1875C11.1719 9.94384 12.9908 8.125 15.2344 8.125H27.4219C29.6655 8.125 31.4844 9.94384 31.4844 12.1875V27.4219C31.4844 29.6655 29.6655 31.4844 27.4219 31.4844H15.2344C12.9908 31.4844 11.1719 29.6655 11.1719 27.4219V12.1875Z" fill="#FF9E3B"/>
<path d="M11.1719 37.5781C11.1719 35.3345 12.9908 33.5156 15.2344 33.5156H27.4219C29.6655 33.5156 31.4844 35.3345 31.4844 37.5781V52.8125C31.4844 55.0561 29.6655 56.875 27.4219 56.875H15.2344C12.9908 56.875 11.1719 55.0561 11.1719 52.8125V37.5781Z" fill="#F28514"/>
<path d="M33.5156 12.1875C33.5156 9.94384 35.3345 8.125 37.5781 8.125H49.7656C52.0092 8.125 53.8281 9.94384 53.8281 12.1875V27.4219C53.8281 29.6655 52.0092 31.4844 49.7656 31.4844H37.5781C35.3345 31.4844 33.5156 29.6655 33.5156 27.4219V12.1875Z" fill="#F28514"/>
<path d="M33.5156 37.5781C33.5156 35.3345 35.3345 33.5156 37.5781 33.5156H49.7656C52.0092 33.5156 53.8281 35.3345 53.8281 37.5781V52.8125C53.8281 55.0561 52.0092 56.875 49.7656 56.875H37.5781C35.3345 56.875 33.5156 55.0561 33.5156 52.8125V37.5781Z" fill="#FF9E3B"/>
<g filter="url(#filter0_d_1_1050)">
<path d="M39.1013 15.2344L48.242 24.375" stroke="white" stroke-width="3.04688" stroke-linecap="round" stroke-linejoin="round"/>
</g>
<g filter="url(#filter1_d_1_1050)">
<path d="M48.2423 15.2344L39.1016 24.375" stroke="white" stroke-width="3.04688" stroke-linecap="round" stroke-linejoin="round"/>
</g>
</g>
</g>
<defs>
<filter id="filter0_d_1_1050" x="34.531" y="11.6797" width="18.2812" height="18.2812" filterUnits="userSpaceOnUse" color-interpolation-filters="sRGB">
<feFlood flood-opacity="0" result="BackgroundImageFix"/>
<feColorMatrix in="SourceAlpha" type="matrix" values="0 0 0 0 0 0 0 0 0 0 0 0 0 0 0 0 0 0 127 0" result="hardAlpha"/>
<feOffset dy="1.01562"/>
<feGaussianBlur stdDeviation="1.52344"/>
<feComposite in2="hardAlpha" operator="out"/>
<feColorMatrix type="matrix" values="0 0 0 0 0.854902 0 0 0 0 0.4 0 0 0 0 0.239216 0 0 0 0.4 0"/>
<feBlend mode="normal" in2="BackgroundImageFix" result="effect1_dropShadow_1_1050"/>
<feBlend mode="normal" in="SourceGraphic" in2="effect1_dropShadow_1_1050" result="shape"/>
</filter>
<filter id="filter1_d_1_1050" x="34.5312" y="11.6797" width="18.2812" height="18.2812" filterUnits="userSpaceOnUse" color-interpolation-filters="sRGB">
<feFlood flood-opacity="0" result="BackgroundImageFix"/>
<feColorMatrix in="SourceAlpha" type="matrix" values="0 0 0 0 0 0 0 0 0 0 0 0 0 0 0 0 0 0 127 0" result="hardAlpha"/>
<feOffset dy="1.01562"/>
<feGaussianBlur stdDeviation="1.52344"/>
<feComposite in2="hardAlpha" operator="out"/>
<feColorMatrix type="matrix" values="0 0 0 0 0.854902 0 0 0 0 0.4 0 0 0 0 0.239216 0 0 0 0.4 0"/>
<feBlend mode="normal" in2="BackgroundImageFix" result="effect1_dropShadow_1_1050"/>
<feBlend mode="normal" in="SourceGraphic" in2="effect1_dropShadow_1_1050" result="shape"/>
</filter>
<clipPath id="clip0_1_1050">
<rect width="65" height="65" fill="white"/>
</clipPath>
<clipPath id="clip1_1_1050">
<rect width="65" height="65" fill="white"/>
</clipPath>
</defs>
</svg>
