<svg width="65" height="65" viewBox="0 0 65 65" fill="none" xmlns="http://www.w3.org/2000/svg">
<g clip-path="url(#clip0_1_917)">
<g clip-path="url(#clip1_1_917)">
<path d="M50.7812 14.2188C50.7812 11.9751 48.9624 10.1562 46.7188 10.1562H14.2188C11.9751 10.1562 10.1562 11.9751 10.1562 14.2188V51.7969C10.1562 54.0405 11.9751 55.8594 14.2188 55.8594H46.7188C48.9624 55.8594 50.7812 54.0405 50.7812 51.7969V14.2188Z" fill="#FB703F"/>
<path d="M50.7812 40.625H10.1562V51.7969C10.1562 54.0405 11.9751 55.8594 14.2188 55.8594H46.7188C48.9624 55.8594 50.7812 54.0405 50.7812 51.7969V40.625Z" fill="#FB622B"/>
<path d="M50.7812 14.2188C50.7812 11.9751 48.9624 10.1562 46.7188 10.1562H14.2188C11.9751 10.1562 10.1562 11.9751 10.1562 14.2188V25.3906H50.7812V14.2188Z" fill="#FB875D"/>
<path d="M25.3995 26.9101C25.3992 28.8755 23.8057 30.4687 21.8403 30.4687C19.8747 30.4687 18.2812 28.8479 18.2812 26.8822C18.2812 24.8866 19.8987 23.2409 21.8943 23.2403L26.4207 23.2389C26.4328 23.2389 26.4425 23.2486 26.4425 23.2606C26.4425 23.2707 26.4356 23.2794 26.4259 23.282C25.8361 23.433 25.3998 23.9751 25.3998 24.6213L25.3995 26.9101Z" fill="white" fill-opacity="0.8"/>
<path d="M18.2812 18.8493C18.2812 20.8458 19.8997 22.4642 21.8962 22.4642H28.9486C30.945 22.4642 32.5635 20.8458 32.5635 18.8493C32.5635 16.8529 30.945 15.2344 28.9486 15.2344H21.8962C19.8997 15.2344 18.2812 16.8529 18.2812 18.8493Z" fill="white" fill-opacity="0.8"/>
<path d="M42.6562 45.7031H21.3281C19.9259 45.7031 18.7891 44.5663 18.7891 43.1641C18.7891 41.7618 19.9259 40.625 21.3281 40.625H35.7897C37.192 40.625 38.3288 39.4882 38.3288 38.0859C38.3288 36.6837 37.192 35.5469 35.7897 35.5469H18.7891" stroke="white" stroke-width="2.03125" stroke-linecap="round"/>
<g filter="url(#filter0_d_1_917)">
<path d="M55.0499 29.2173C56.0415 28.2257 57.6492 28.2257 58.6408 29.2173C59.6323 30.2089 59.6323 31.8165 58.6408 32.808L46.8969 44.5519C46.3585 45.0903 45.6797 45.4666 44.9378 45.6377L42.9884 46.0876C42.2571 46.2563 41.6016 45.601 41.7704 44.8696L42.2203 42.9202C42.3915 42.1784 42.7677 41.4996 43.3061 40.9612L55.0499 29.2173Z" fill="white"/>
</g>
</g>
</g>
<defs>
<filter id="filter0_d_1_917" x="38.6968" y="26.4424" width="23.7346" height="23.7345" filterUnits="userSpaceOnUse" color-interpolation-filters="sRGB">
<feFlood flood-opacity="0" result="BackgroundImageFix"/>
<feColorMatrix in="SourceAlpha" type="matrix" values="0 0 0 0 0 0 0 0 0 0 0 0 0 0 0 0 0 0 127 0" result="hardAlpha"/>
<feOffset dy="1.01562"/>
<feGaussianBlur stdDeviation="1.52344"/>
<feComposite in2="hardAlpha" operator="out"/>
<feColorMatrix type="matrix" values="0 0 0 0 0.629362 0 0 0 0 0.292761 0 0 0 0 0.17379 0 0 0 0.4 0"/>
<feBlend mode="normal" in2="BackgroundImageFix" result="effect1_dropShadow_1_917"/>
<feBlend mode="normal" in="SourceGraphic" in2="effect1_dropShadow_1_917" result="shape"/>
</filter>
<clipPath id="clip0_1_917">
<rect width="65" height="65" fill="white"/>
</clipPath>
<clipPath id="clip1_1_917">
<rect width="65" height="65" fill="white"/>
</clipPath>
</defs>
</svg>
