<svg width="65" height="65" viewBox="0 0 65 65" fill="none" xmlns="http://www.w3.org/2000/svg">
<g clip-path="url(#clip0_1_89)">
<g clip-path="url(#clip1_1_89)">
<path d="M10.1562 10.1562C10.1562 7.91259 11.9751 6.09375 14.2188 6.09375H46.7188C48.9624 6.09375 50.7812 7.91259 50.7812 10.1562V47.7344C50.7812 49.978 48.9624 51.7969 46.7188 51.7969H14.2188C11.9751 51.7969 10.1562 49.978 10.1562 47.7344V10.1562Z" fill="#2FBA6C"/>
<path d="M10.1562 36.5625H50.7812V47.7344C50.7812 49.978 48.9624 51.7969 46.7188 51.7969H14.2188C11.9751 51.7969 10.1562 49.978 10.1562 47.7344V36.5625Z" fill="#2CAD65"/>
<path d="M10.1562 10.1562C10.1562 7.91259 11.9751 6.09375 14.2188 6.09375H46.7188C48.9624 6.09375 50.7812 7.91259 50.7812 10.1562V21.3281H10.1562V10.1562Z" fill="#32C773"/>
<path d="M36.5625 30.4688L30.4688 22.3438M30.4688 22.3438L24.375 14.2188M30.4688 22.3438L36.5625 14.2188M30.4688 22.3438L24.375 30.4688" stroke="white" stroke-width="4.64286" stroke-linecap="round" stroke-linejoin="round"/>
<g filter="url(#filter0_d_1_89)">
<path d="M33.5156 38.5938C33.5156 36.3501 35.3345 34.5312 37.5781 34.5312H53.8281C56.0717 34.5312 57.8906 36.3501 57.8906 38.5938V54.8438C57.8906 57.0874 56.0717 58.9062 53.8281 58.9062H37.5781C35.3345 58.9062 33.5156 57.0874 33.5156 54.8438V38.5938Z" fill="url(#paint0_linear_1_89)"/>
</g>
<path d="M52.8448 47.7671L48.7495 43.6719M52.8448 47.7671L48.7495 51.7969M52.8448 47.7671H41.6729C40.5511 47.7671 39.6416 46.8577 39.6416 45.7358V41.6406" stroke="white" stroke-width="2.53906" stroke-linecap="round" stroke-linejoin="round"/>
</g>
</g>
<defs>
<filter id="filter0_d_1_89" x="30.4688" y="32.5" width="30.4688" height="30.4688" filterUnits="userSpaceOnUse" color-interpolation-filters="sRGB">
<feFlood flood-opacity="0" result="BackgroundImageFix"/>
<feColorMatrix in="SourceAlpha" type="matrix" values="0 0 0 0 0 0 0 0 0 0 0 0 0 0 0 0 0 0 127 0" result="hardAlpha"/>
<feOffset dy="1.01562"/>
<feGaussianBlur stdDeviation="1.52344"/>
<feComposite in2="hardAlpha" operator="out"/>
<feColorMatrix type="matrix" values="0 0 0 0 0.114423 0 0 0 0 0.51 0 0 0 0 0.287692 0 0 0 0.4 0"/>
<feBlend mode="normal" in2="BackgroundImageFix" result="effect1_dropShadow_1_89"/>
<feBlend mode="normal" in="SourceGraphic" in2="effect1_dropShadow_1_89" result="shape"/>
</filter>
<linearGradient id="paint0_linear_1_89" x1="45.7031" y1="34.5312" x2="45.7031" y2="58.9062" gradientUnits="userSpaceOnUse">
<stop stop-color="#34CD78"/>
<stop offset="1" stop-color="#229956"/>
</linearGradient>
<clipPath id="clip0_1_89">
<rect width="65" height="65" fill="white"/>
</clipPath>
<clipPath id="clip1_1_89">
<rect width="65" height="65" fill="white"/>
</clipPath>
</defs>
</svg>
