<svg width="65" height="65" viewBox="0 0 65 65" fill="none" xmlns="http://www.w3.org/2000/svg">
<g clip-path="url(#clip0_1_145)">
<g clip-path="url(#clip1_1_145)">
<path d="M10.1562 10.1562C10.1562 7.91259 11.9751 6.09375 14.2188 6.09375H46.7188C48.9624 6.09375 50.7812 7.91259 50.7812 10.1562V47.7344C50.7812 49.978 48.9624 51.7969 46.7188 51.7969H14.2188C11.9751 51.7969 10.1562 49.978 10.1562 47.7344V10.1562Z" fill="#2FBA6C"/>
<path d="M10.1562 36.5625H50.7812V47.7344C50.7812 49.978 48.9624 51.7969 46.7188 51.7969H14.2188C11.9751 51.7969 10.1562 49.978 10.1562 47.7344V36.5625Z" fill="#2CAD65"/>
<path d="M10.1562 10.1562C10.1562 7.91259 11.9751 6.09375 14.2188 6.09375H46.7188C48.9624 6.09375 50.7812 7.91259 50.7812 10.1562V21.3281H10.1562V10.1562Z" fill="#32C773"/>
<g filter="url(#filter0_d_1_145)">
<path d="M33.5156 38.5938C33.5156 36.3501 35.3345 34.5312 37.5781 34.5312H53.8281C56.0717 34.5312 57.8906 36.3501 57.8906 38.5938V54.8438C57.8906 57.0874 56.0717 58.9062 53.8281 58.9062H37.5781C35.3345 58.9062 33.5156 57.0874 33.5156 54.8438V38.5938Z" fill="url(#paint0_linear_1_145)"/>
</g>
<path d="M52.8448 47.7671L48.7495 43.6719M52.8448 47.7671L48.7495 51.7969M52.8448 47.7671H41.6729C40.5511 47.7671 39.6416 46.8577 39.6416 45.7358V41.6406" stroke="white" stroke-width="2.53906" stroke-linecap="round" stroke-linejoin="round"/>
<path d="M20.3933 17.0138C21.218 17.0138 21.9385 17.156 22.5546 17.4404C23.1707 17.7247 23.6447 18.1276 23.9764 18.6489C24.3177 19.1608 24.4883 19.7628 24.4883 20.4547C24.4883 21.1372 24.3177 21.7392 23.9764 22.2605C23.6447 22.7724 23.1707 23.1705 22.5546 23.4549C21.9385 23.7298 21.218 23.8672 20.3933 23.8672H18.8719V27.4219H16.8102V17.0138H20.3933ZM20.1658 22.1183C20.8104 22.1183 21.3271 21.9809 21.7156 21.706C22.1043 21.4216 22.2986 21.0045 22.2986 20.4547C22.2986 19.905 22.1043 19.4879 21.7156 19.2035C21.3271 18.9097 20.8104 18.7627 20.1658 18.7627H18.8719V22.1183H20.1658ZM32.5179 17.0138H34.5797V23.2132C34.5797 24.1042 34.4043 24.8815 34.0536 25.545C33.7029 26.1991 33.1957 26.7062 32.5322 27.0664C31.8687 27.4171 31.0818 27.5925 30.1718 27.5925C29.2524 27.5925 28.4608 27.4171 27.7973 27.0664C27.1338 26.7062 26.6266 26.1991 26.2759 25.545C25.9252 24.8815 25.7498 24.1042 25.7498 23.2132V17.0138H27.8115V22.7155C27.8115 23.7203 28.0154 24.4692 28.4229 24.9621C28.8401 25.455 29.423 25.7014 30.1718 25.7014C30.9112 25.7014 31.4847 25.455 31.8923 24.9621C32.3094 24.4692 32.5179 23.7203 32.5179 22.7155V17.0138ZM43.0083 22.0188C44.1554 22.4264 44.7288 23.2274 44.7288 24.4218C44.7288 25.3602 44.3829 26.0948 43.6908 26.6257C43.0083 27.1565 42.0462 27.4219 40.8044 27.4219H36.6525V17.0138H40.4205C41.5296 17.0138 42.4301 17.2697 43.1221 17.7816C43.8236 18.284 44.1743 18.995 44.1743 19.9144C44.1743 20.8718 43.7857 21.5732 43.0083 22.0188ZM38.6716 18.8054V21.2652H40.2215C40.7808 21.2652 41.2215 21.1514 41.5438 20.9239C41.8756 20.687 42.0415 20.3742 42.0415 19.9855C42.0415 19.6064 41.8804 19.3172 41.558 19.1182C41.2358 18.9097 40.7902 18.8054 40.2215 18.8054H38.6716ZM40.6338 25.6304C41.2594 25.6304 41.7382 25.5166 42.0699 25.2891C42.4111 25.0616 42.5818 24.7393 42.5818 24.3222C42.5818 23.9051 42.4111 23.5781 42.0699 23.3411C41.7382 23.1042 41.2548 22.9857 40.6196 22.9857H38.6716V25.6304H40.6338Z" fill="white"/>
</g>
</g>
<defs>
<filter id="filter0_d_1_145" x="30.4688" y="32.5" width="30.4688" height="30.4688" filterUnits="userSpaceOnUse" color-interpolation-filters="sRGB">
<feFlood flood-opacity="0" result="BackgroundImageFix"/>
<feColorMatrix in="SourceAlpha" type="matrix" values="0 0 0 0 0 0 0 0 0 0 0 0 0 0 0 0 0 0 127 0" result="hardAlpha"/>
<feOffset dy="1.01562"/>
<feGaussianBlur stdDeviation="1.52344"/>
<feComposite in2="hardAlpha" operator="out"/>
<feColorMatrix type="matrix" values="0 0 0 0 0.114423 0 0 0 0 0.51 0 0 0 0 0.287692 0 0 0 0.4 0"/>
<feBlend mode="normal" in2="BackgroundImageFix" result="effect1_dropShadow_1_145"/>
<feBlend mode="normal" in="SourceGraphic" in2="effect1_dropShadow_1_145" result="shape"/>
</filter>
<linearGradient id="paint0_linear_1_145" x1="45.7031" y1="34.5312" x2="45.7031" y2="58.9062" gradientUnits="userSpaceOnUse">
<stop stop-color="#34CD78"/>
<stop offset="1" stop-color="#229956"/>
</linearGradient>
<clipPath id="clip0_1_145">
<rect width="65" height="65" fill="white"/>
</clipPath>
<clipPath id="clip1_1_145">
<rect width="65" height="65" fill="white"/>
</clipPath>
</defs>
</svg>
