<svg width="66" height="65" viewBox="0 0 66 65" fill="none" xmlns="http://www.w3.org/2000/svg">
<g clip-path="url(#clip0_1_1189)">
<g clip-path="url(#clip1_1_1189)">
<path d="M51.3712 10.1562C51.3712 7.91259 49.5523 6.09375 47.3087 6.09375H14.8087C12.5651 6.09375 10.7462 7.91259 10.7462 10.1562V47.7344C10.7462 49.978 12.5651 51.7969 14.8087 51.7969H47.3087C49.5523 51.7969 51.3712 49.978 51.3712 47.7344V10.1562Z" fill="#2DB49B"/>
<path d="M10.7462 10.1562C10.7462 7.91259 12.5651 6.09375 14.8087 6.09375H47.3087C49.5523 6.09375 51.3712 7.91259 51.3712 10.1562V21.3281H10.7462V10.1562Z" fill="#30C0A8"/>
<path d="M31.4508 27.0548L35.8324 21.0301C36.6913 19.8492 38.4513 19.8504 39.3102 21.0314L43.6896 27.0531C44.7235 28.4747 43.708 30.4688 41.9502 30.4688H33.1915C31.4337 30.4688 30.417 28.4764 31.4508 27.0548Z" fill="white"/>
<path d="M15.9358 27.1925L23.3752 15.1478C24.2156 13.787 26.1929 13.7895 27.0333 15.1502L36.4949 30.4689H17.7685C16.0843 30.4689 15.0508 28.6253 15.9358 27.1925Z" fill="white"/>
<path d="M33.8067 18.6395C35.2915 18.6395 36.4951 17.4359 36.4951 15.9511C36.4951 14.4663 35.2915 13.2627 33.8067 13.2627C32.3219 13.2627 31.1183 14.4663 31.1183 15.9511C31.1183 17.4359 32.3219 18.6395 33.8067 18.6395Z" fill="white"/>
<path d="M10.7462 47.7344C10.7462 49.978 12.5651 51.7969 14.8087 51.7969H47.3087C49.5523 51.7969 51.3712 49.978 51.3712 47.7344V36.5625H10.7462V47.7344Z" fill="#2AAA93"/>
<g filter="url(#filter0_d_1_1189)">
<path d="M36.1368 38.5938C36.1368 36.3501 37.9557 34.5312 40.1993 34.5312H56.4493C58.693 34.5312 60.5118 36.3501 60.5118 38.5938V54.8438C60.5118 57.0874 58.693 58.9062 56.4493 58.9062H40.1993C37.9557 58.9062 36.1368 57.0874 36.1368 54.8438V38.5938Z" fill="url(#paint0_linear_1_1189)"/>
</g>
<path d="M54.4504 47.7671L50.3551 43.6719M54.4504 47.7671L50.3551 51.7969M54.4504 47.7671H43.2784C42.1567 47.7671 41.2472 46.8577 41.2472 45.7358V41.6406" stroke="white" stroke-width="2.53906" stroke-linecap="round" stroke-linejoin="round"/>
</g>
</g>
<defs>
<filter id="filter0_d_1_1189" x="32.0743" y="30.4688" width="32.5" height="32.5" filterUnits="userSpaceOnUse" color-interpolation-filters="sRGB">
<feFlood flood-opacity="0" result="BackgroundImageFix"/>
<feColorMatrix in="SourceAlpha" type="matrix" values="0 0 0 0 0 0 0 0 0 0 0 0 0 0 0 0 0 0 127 0" result="hardAlpha"/>
<feOffset/>
<feGaussianBlur stdDeviation="2.03125"/>
<feComposite in2="hardAlpha" operator="out"/>
<feColorMatrix type="matrix" values="0 0 0 0 0.114423 0 0 0 0 0.51 0 0 0 0 0.287692 0 0 0 0.4 0"/>
<feBlend mode="normal" in2="BackgroundImageFix" result="effect1_dropShadow_1_1189"/>
<feBlend mode="normal" in="SourceGraphic" in2="effect1_dropShadow_1_1189" result="shape"/>
</filter>
<linearGradient id="paint0_linear_1_1189" x1="48.3243" y1="34.5312" x2="48.3243" y2="58.9062" gradientUnits="userSpaceOnUse">
<stop offset="0.0610702" stop-color="#2DCDB0"/>
<stop offset="1" stop-color="#1D8E7A"/>
</linearGradient>
<clipPath id="clip0_1_1189">
<rect width="65" height="65" fill="white" transform="translate(0.589966)"/>
</clipPath>
<clipPath id="clip1_1_1189">
<rect width="65" height="65" fill="white" transform="translate(0.589966)"/>
</clipPath>
</defs>
</svg>
