<svg width="65" height="65" viewBox="0 0 65 65" fill="none" xmlns="http://www.w3.org/2000/svg">
<g clip-path="url(#clip0_1_118)">
<path d="M50.7812 11.1719C50.7812 8.92822 48.9624 7.10938 46.7188 7.10938H14.2188C11.9751 7.10938 10.1562 8.92822 10.1562 11.1719V48.75C10.1562 50.9936 11.9751 52.8125 14.2188 52.8125H46.7188C48.9624 52.8125 50.7812 50.9936 50.7812 48.75V11.1719Z" fill="#FF901F"/>
<path d="M10.1562 11.1719C10.1562 8.92822 11.9751 7.10938 14.2188 7.10938H46.7188C48.9624 7.10938 50.7812 8.92822 50.7812 11.1719V22.3438H10.1562V11.1719Z" fill="#FF9E3B"/>
<path d="M10.1562 48.75C10.1562 50.9936 11.9751 52.8125 14.2188 52.8125H46.7188C48.9624 52.8125 50.7812 50.9936 50.7812 48.75V37.5781H10.1562V48.75Z" fill="#F28514"/>
<g filter="url(#filter0_d_1_118)">
<path d="M34.5312 38.5938C34.5312 36.3501 36.3501 34.5312 38.5938 34.5312H54.8438C57.0874 34.5312 58.9062 36.3501 58.9062 38.5938V54.8438C58.9062 57.0874 57.0874 58.9062 54.8438 58.9062H38.5938C36.3501 58.9062 34.5312 57.0874 34.5312 54.8438V38.5938Z" fill="url(#paint0_linear_1_118)"/>
</g>
<path d="M53.8605 47.7671L49.7651 43.6719M53.8605 47.7671L49.7651 51.7969M53.8605 47.7671H42.6885C41.5667 47.7671 40.6572 46.8577 40.6572 45.7358V41.6406" stroke="white" stroke-width="2.53906" stroke-linecap="round" stroke-linejoin="round"/>
<path d="M16.8636 17.0138H25.2527V18.848H22.0961V27.4219H20.0202V18.848H16.8636V17.0138ZM35.3114 17.0138L31.6571 22.0899L35.482 27.4219H32.9226L30.3917 23.7677L27.8465 27.4219H25.4578L29.2684 22.1325L25.6284 17.0138H28.1451L30.5339 20.4547L32.9226 17.0138H35.3114ZM35.6646 17.0138H44.0537V18.848H40.8971V27.4219H38.8212V18.848H35.6646V17.0138Z" fill="white"/>
</g>
<defs>
<filter id="filter0_d_1_118" x="31.4844" y="31.4844" width="30.4688" height="30.4688" filterUnits="userSpaceOnUse" color-interpolation-filters="sRGB">
<feFlood flood-opacity="0" result="BackgroundImageFix"/>
<feColorMatrix in="SourceAlpha" type="matrix" values="0 0 0 0 0 0 0 0 0 0 0 0 0 0 0 0 0 0 127 0" result="hardAlpha"/>
<feOffset/>
<feGaussianBlur stdDeviation="1.52344"/>
<feComposite in2="hardAlpha" operator="out"/>
<feColorMatrix type="matrix" values="0 0 0 0 0.960784 0 0 0 0 0.505882 0 0 0 0 0.0392157 0 0 0 0.4 0"/>
<feBlend mode="normal" in2="BackgroundImageFix" result="effect1_dropShadow_1_118"/>
<feBlend mode="normal" in="SourceGraphic" in2="effect1_dropShadow_1_118" result="shape"/>
</filter>
<linearGradient id="paint0_linear_1_118" x1="46.7188" y1="34.5312" x2="46.7188" y2="58.9062" gradientUnits="userSpaceOnUse">
<stop stop-color="#FF9120"/>
<stop offset="1" stop-color="#E67500"/>
</linearGradient>
<clipPath id="clip0_1_118">
<rect width="65" height="65" fill="white"/>
</clipPath>
</defs>
</svg>
