<svg width="65" height="65" viewBox="0 0 65 65" fill="none" xmlns="http://www.w3.org/2000/svg">
<g clip-path="url(#clip0_1_103)">
<g clip-path="url(#clip1_1_103)">
<path d="M50.7812 10.1562C50.7812 7.91259 48.9624 6.09375 46.7188 6.09375H14.2188C11.9751 6.09375 10.1562 7.91259 10.1562 10.1562V47.7344C10.1562 49.978 11.9751 51.7969 14.2188 51.7969H46.7188C48.9624 51.7969 50.7812 49.978 50.7812 47.7344V10.1562Z" fill="#2DB49B"/>
<path d="M10.1562 10.1562C10.1562 7.91259 11.9751 6.09375 14.2188 6.09375H46.7188C48.9624 6.09375 50.7812 7.91259 50.7812 10.1562V21.3281H10.1562V10.1562Z" fill="#30C0A8"/>
<path d="M10.1562 47.7344C10.1562 49.978 11.9751 51.7969 14.2188 51.7969H46.7188C48.9624 51.7969 50.7812 49.978 50.7812 47.7344V36.5625H10.1562V47.7344Z" fill="#2AAA93"/>
<g filter="url(#filter0_d_1_103)">
<path d="M34.5312 38.5938C34.5312 36.3501 36.3501 34.5312 38.5938 34.5312H54.8438C57.0874 34.5312 58.9062 36.3501 58.9062 38.5938V54.8438C58.9062 57.0874 57.0874 58.9062 54.8438 58.9062H38.5938C36.3501 58.9062 34.5312 57.0874 34.5312 54.8438V38.5938Z" fill="url(#paint0_linear_1_103)"/>
</g>
<path d="M53.8605 47.7671L49.7651 43.6719M53.8605 47.7671L49.7651 51.7969M53.8605 47.7671H42.6885C41.5667 47.7671 40.6572 46.8577 40.6572 45.7358V41.6406" stroke="white" stroke-width="2.53906" stroke-linecap="round" stroke-linejoin="round"/>
<path d="M20.669 27.5925C19.9012 27.5925 19.2425 27.4076 18.6926 27.0379C18.1429 26.6682 17.778 26.1043 17.5978 25.3459L19.304 24.4359C19.4178 24.8625 19.5837 25.18 19.8017 25.3885C20.0292 25.5971 20.3231 25.7014 20.6832 25.7014C21.1572 25.7014 21.4937 25.5307 21.6928 25.1895C21.8918 24.8388 21.9914 24.2985 21.9914 23.5685V17.0137H24.0531V23.7676C24.0531 25.1232 23.7356 26.0995 23.1004 26.6967C22.4654 27.2939 21.6549 27.5925 20.669 27.5925ZM29.7184 17.0137C30.5431 17.0137 31.2635 17.1559 31.8797 17.4403C32.4958 17.7246 32.9698 18.1275 33.3016 18.6489C33.6428 19.1607 33.8135 19.7627 33.8135 20.4546C33.8135 21.1371 33.6428 21.7391 33.3016 22.2604C32.9698 22.7723 32.4958 23.1704 31.8797 23.4548C31.2635 23.7297 30.5431 23.8671 29.7184 23.8671H28.197V27.4218H26.1353V17.0137H29.7184ZM29.4909 22.1182C30.1355 22.1182 30.6521 21.9808 31.0408 21.7059C31.4294 21.4215 31.6238 21.0044 31.6238 20.4546C31.6238 19.9049 31.4294 19.4878 31.0408 19.2034C30.6521 18.9096 30.1355 18.7626 29.4909 18.7626H28.197V22.1182H29.4909ZM39.7813 23.4264V21.649H43.7625V25.8862C43.4403 26.4075 42.9236 26.8246 42.2127 27.1375C41.5113 27.4408 40.7339 27.5925 39.8808 27.5925C38.8666 27.5925 37.966 27.365 37.1792 26.91C36.3925 26.455 35.7811 25.8199 35.345 25.0046C34.909 24.1894 34.6909 23.2557 34.6909 22.2035C34.6909 21.1419 34.9138 20.2035 35.3592 19.3882C35.8142 18.573 36.4352 17.9427 37.2219 17.4971C38.0087 17.0516 38.8808 16.8289 39.8381 16.8289C40.7956 16.8289 41.625 17.0469 42.3264 17.4829C43.0374 17.9095 43.5161 18.4592 43.7625 19.1323L42.0563 20.1134C41.8478 19.6774 41.5492 19.3361 41.1605 19.0896C40.7719 18.8337 40.3121 18.7057 39.7813 18.7057C39.2221 18.7057 38.7196 18.8479 38.2741 19.1323C37.8286 19.4167 37.4778 19.8242 37.2219 20.3551C36.9659 20.886 36.838 21.5021 36.838 22.2035C36.838 22.9239 36.9659 23.5496 37.2219 24.0804C37.4874 24.6113 37.8571 25.0189 38.3309 25.3032C38.8144 25.5876 39.3737 25.7298 40.0088 25.7298C40.7481 25.7298 41.3264 25.526 41.7434 25.1184V23.4264H39.7813Z" fill="white"/>
</g>
</g>
<defs>
<filter id="filter0_d_1_103" x="30.4688" y="30.4688" width="32.5" height="32.5" filterUnits="userSpaceOnUse" color-interpolation-filters="sRGB">
<feFlood flood-opacity="0" result="BackgroundImageFix"/>
<feColorMatrix in="SourceAlpha" type="matrix" values="0 0 0 0 0 0 0 0 0 0 0 0 0 0 0 0 0 0 127 0" result="hardAlpha"/>
<feOffset/>
<feGaussianBlur stdDeviation="2.03125"/>
<feComposite in2="hardAlpha" operator="out"/>
<feColorMatrix type="matrix" values="0 0 0 0 0.114423 0 0 0 0 0.51 0 0 0 0 0.287692 0 0 0 0.4 0"/>
<feBlend mode="normal" in2="BackgroundImageFix" result="effect1_dropShadow_1_103"/>
<feBlend mode="normal" in="SourceGraphic" in2="effect1_dropShadow_1_103" result="shape"/>
</filter>
<linearGradient id="paint0_linear_1_103" x1="46.7188" y1="34.5312" x2="46.7188" y2="58.9062" gradientUnits="userSpaceOnUse">
<stop offset="0.0610702" stop-color="#2DCDB0"/>
<stop offset="1" stop-color="#1D8E7A"/>
</linearGradient>
<clipPath id="clip0_1_103">
<rect width="65" height="65" fill="white"/>
</clipPath>
<clipPath id="clip1_1_103">
<rect width="65" height="65" fill="white"/>
</clipPath>
</defs>
</svg>
