<svg width="65" height="65" viewBox="0 0 65 65" fill="none" xmlns="http://www.w3.org/2000/svg">
<g clip-path="url(#clip0_1_977)">
<g clip-path="url(#clip1_1_977)">
<g filter="url(#filter0_d_1_977)">
<path d="M8.125 12.1875C8.125 9.94384 9.94384 8.125 12.1875 8.125H36.5625C38.8061 8.125 40.625 9.94384 40.625 12.1875V36.5625C40.625 38.8061 38.8061 40.625 36.5625 40.625H12.1875C9.94384 40.625 8.125 38.8061 8.125 36.5625V12.1875Z" fill="#FF9E3B"/>
</g>
<g filter="url(#filter1_d_1_977)">
<path d="M24.375 28.4375C24.375 26.1939 26.1939 24.375 28.4375 24.375H52.8125C55.0561 24.375 56.875 26.1939 56.875 28.4375V52.8125C56.875 55.0561 55.0561 56.875 52.8125 56.875H28.4375C26.1939 56.875 24.375 55.0561 24.375 52.8125V28.4375Z" fill="url(#paint0_linear_1_977)"/>
</g>
<path d="M24.375 28.4375C24.375 26.1939 26.1939 24.375 28.4375 24.375H40.625V36.5625C40.625 38.8061 38.8061 40.625 36.5625 40.625H24.375V28.4375Z" fill="#E67500"/>
<path d="M37.5781 37.5781V44.6875M37.5781 37.5781H44.6875M37.5781 37.5781L48.75 48.75" stroke="white" stroke-width="2.92428" stroke-linecap="round" stroke-linejoin="round"/>
<path d="M32.5 34.5312C33.6218 34.5312 34.5312 33.6218 34.5312 32.5C34.5312 31.3782 33.6218 30.4688 32.5 30.4688C31.3782 30.4688 30.4688 31.3782 30.4688 32.5C30.4688 33.6218 31.3782 34.5312 32.5 34.5312Z" fill="white"/>
<path d="M27.4219 27.4219V20.3125M27.4219 27.4219H20.3125M27.4219 27.4219L16.25 16.25" stroke="white" stroke-width="2.92428" stroke-linecap="round" stroke-linejoin="round"/>
</g>
</g>
<defs>
<filter id="filter0_d_1_977" x="5.5134" y="6.38394" width="37.7232" height="37.7232" filterUnits="userSpaceOnUse" color-interpolation-filters="sRGB">
<feFlood flood-opacity="0" result="BackgroundImageFix"/>
<feColorMatrix in="SourceAlpha" type="matrix" values="0 0 0 0 0 0 0 0 0 0 0 0 0 0 0 0 0 0 127 0" result="hardAlpha"/>
<feOffset dy="0.870536"/>
<feGaussianBlur stdDeviation="1.3058"/>
<feComposite in2="hardAlpha" operator="out"/>
<feColorMatrix type="matrix" values="0 0 0 0 0.854902 0 0 0 0 0.4 0 0 0 0 0.239216 0 0 0 0.4 0"/>
<feBlend mode="normal" in2="BackgroundImageFix" result="effect1_dropShadow_1_977"/>
<feBlend mode="normal" in="SourceGraphic" in2="effect1_dropShadow_1_977" result="shape"/>
</filter>
<filter id="filter1_d_1_977" x="21.3281" y="21.3281" width="38.5938" height="38.5938" filterUnits="userSpaceOnUse" color-interpolation-filters="sRGB">
<feFlood flood-opacity="0" result="BackgroundImageFix"/>
<feColorMatrix in="SourceAlpha" type="matrix" values="0 0 0 0 0 0 0 0 0 0 0 0 0 0 0 0 0 0 127 0" result="hardAlpha"/>
<feOffset/>
<feGaussianBlur stdDeviation="1.52344"/>
<feComposite in2="hardAlpha" operator="out"/>
<feColorMatrix type="matrix" values="0 0 0 0 0.960784 0 0 0 0 0.505882 0 0 0 0 0.0392157 0 0 0 0.4 0"/>
<feBlend mode="normal" in2="BackgroundImageFix" result="effect1_dropShadow_1_977"/>
<feBlend mode="normal" in="SourceGraphic" in2="effect1_dropShadow_1_977" result="shape"/>
</filter>
<linearGradient id="paint0_linear_1_977" x1="40.625" y1="24.375" x2="40.625" y2="56.875" gradientUnits="userSpaceOnUse">
<stop stop-color="#FF9120"/>
<stop offset="1" stop-color="#F07A01"/>
</linearGradient>
<clipPath id="clip0_1_977">
<rect width="65" height="65" fill="white"/>
</clipPath>
<clipPath id="clip1_1_977">
<rect width="65" height="65" fill="white"/>
</clipPath>
</defs>
</svg>
