<svg width="65" height="65" viewBox="0 0 65 65" fill="none" xmlns="http://www.w3.org/2000/svg">
<g clip-path="url(#clip0_1_304)">
<g clip-path="url(#clip1_1_304)">
<path d="M52.8125 14.2188C52.8125 11.9751 50.9936 10.1562 48.75 10.1562H16.25C14.0064 10.1562 12.1875 11.9751 12.1875 14.2188V48.75C12.1875 50.9936 14.0064 52.8125 16.25 52.8125H48.75C50.9936 52.8125 52.8125 50.9936 52.8125 48.75V14.2188Z" fill="#7860F0"/>
<path d="M12.1875 48.75C12.1875 50.9936 14.0064 52.8125 16.25 52.8125H48.75C50.9936 52.8125 52.8125 50.9936 52.8125 48.75V38.5938H12.1875V48.75Z" fill="#6650D6"/>
<path d="M12.1875 14.2188C12.1875 11.9751 14.0064 10.1562 16.25 10.1562H48.75C50.9936 10.1562 52.8125 11.9751 52.8125 14.2188V24.375H12.1875V14.2188Z" fill="#876FFE"/>
<path d="M42.3177 22.3439H32.8385M32.8385 22.3439H23.3594M32.8385 22.3439V42.4872" stroke="white" stroke-width="4.0625" stroke-linecap="round" stroke-linejoin="round"/>
<path fill-rule="evenodd" clip-rule="evenodd" d="M20.1386 5.48425C20.1386 4.69897 19.502 4.06238 18.7167 4.06238H11.8231C8.1822 4.06238 5.23071 7.01386 5.23071 10.6547V15.2343C5.23071 16.0196 5.86731 16.6561 6.65259 16.6561C7.43787 16.6561 8.07446 16.0196 8.07446 15.2343V10.6547C8.07446 8.58442 9.75275 6.90613 11.8231 6.90613H18.7167C19.502 6.90613 20.1386 6.26953 20.1386 5.48425ZM20.1386 58.2968C20.1386 57.5115 19.502 56.8749 18.7167 56.8749H11.8231C9.75275 56.8749 8.07446 55.1966 8.07446 53.1263V48.5468C8.07446 47.7615 7.43787 47.1249 6.65259 47.1249C5.86731 47.1249 5.23071 47.7615 5.23071 48.5468V53.1263C5.23071 56.7671 8.1822 59.7186 11.8231 59.7186H18.7167C19.502 59.7186 20.1386 59.0821 20.1386 58.2968ZM46.2846 59.7186C45.4993 59.7186 44.8627 59.0821 44.8627 58.2968C44.8627 57.5115 45.4993 56.8749 46.2846 56.8749H53.178C55.2483 56.8749 56.9266 55.1966 56.9266 53.1263V48.5468C56.9266 47.7615 57.5632 47.1249 58.3485 47.1249C59.1337 47.1249 59.7703 47.7615 59.7703 48.5468V53.1263C59.7703 56.7671 56.8188 59.7186 53.178 59.7186H46.2846ZM46.2846 6.90613C45.4993 6.90613 44.8627 6.26953 44.8627 5.48425C44.8627 4.69897 45.4993 4.06238 46.2846 4.06238H53.178C56.8188 4.06238 59.7703 7.01387 59.7703 10.6547V15.2343C59.7703 16.0196 59.1337 16.6561 58.3485 16.6561C57.5632 16.6561 56.9266 16.0196 56.9266 15.2343V10.6547C56.9266 8.58442 55.2483 6.90613 53.178 6.90613H46.2846Z" fill="#A99AF6"/>
<g filter="url(#filter0_d_1_304)">
<path d="M2.03125 31.4844C2.03125 30.3625 2.94067 29.4531 4.0625 29.4531H60.9375C62.0594 29.4531 62.9688 30.3625 62.9688 31.4844C62.9688 32.6062 62.0594 33.5156 60.9375 33.5156H4.0625C2.94067 33.5156 2.03125 32.6062 2.03125 31.4844Z" fill="#A99AF6"/>
</g>
</g>
</g>
<defs>
<filter id="filter0_d_1_304" x="1.24132" y="29.4531" width="62.5174" height="5.64236" filterUnits="userSpaceOnUse" color-interpolation-filters="sRGB">
<feFlood flood-opacity="0" result="BackgroundImageFix"/>
<feColorMatrix in="SourceAlpha" type="matrix" values="0 0 0 0 0 0 0 0 0 0 0 0 0 0 0 0 0 0 127 0" result="hardAlpha"/>
<feOffset dy="0.789931"/>
<feGaussianBlur stdDeviation="0.394965"/>
<feColorMatrix type="matrix" values="0 0 0 0 0.505882 0 0 0 0 0.411765 0 0 0 0 0.964706 0 0 0 0.4 0"/>
<feBlend mode="multiply" in2="BackgroundImageFix" result="effect1_dropShadow_1_304"/>
<feBlend mode="normal" in="SourceGraphic" in2="effect1_dropShadow_1_304" result="shape"/>
</filter>
<clipPath id="clip0_1_304">
<rect width="65" height="65" fill="white"/>
</clipPath>
<clipPath id="clip1_1_304">
<rect width="65" height="65" fill="white"/>
</clipPath>
</defs>
</svg>
