<svg width="66" height="65" viewBox="0 0 66 65" fill="none" xmlns="http://www.w3.org/2000/svg">
<g clip-path="url(#clip0_1_203)">
<g clip-path="url(#clip1_1_203)">
<path d="M57.4648 17.2656C57.4648 15.022 55.646 13.2031 53.4023 13.2031H20.9023C18.6587 13.2031 16.8398 15.022 16.8398 17.2656V54.8438C16.8398 57.0874 18.6587 58.9062 20.9023 58.9062H53.4023C55.646 58.9062 57.4648 57.0874 57.4648 54.8438V17.2656Z" fill="#2DB49B"/>
<path d="M16.8398 54.8438C16.8398 57.0874 18.6587 58.9062 20.9023 58.9062H53.4023C55.646 58.9062 57.4648 57.0874 57.4648 54.8438V43.6719H16.8398V54.8438Z" fill="#2AAA93"/>
<path d="M16.8398 17.2656C16.8398 15.022 18.6587 13.2031 20.9023 13.2031H53.4023C55.646 13.2031 57.4648 15.022 57.4648 17.2656V28.4375H16.8398V17.2656Z" fill="#30C0A8"/>
<g filter="url(#filter0_d_1_203)">
<path d="M8.71484 10.1562C8.71484 7.91259 10.5337 6.09375 12.7773 6.09375H29.0273C31.271 6.09375 33.0898 7.91259 33.0898 10.1562V26.4062C33.0898 28.6499 31.271 30.4688 29.0273 30.4688H12.7773C10.5337 30.4688 8.71484 28.6499 8.71484 26.4062V10.1562Z" fill="url(#paint0_linear_1_203)"/>
</g>
<path d="M28.044 19.3296L23.9487 15.2344M28.044 19.3296L23.9487 23.3594M28.044 19.3296H16.8721C15.7503 19.3296 14.8408 18.4202 14.8408 17.2983V13.2031" stroke="white" stroke-width="2.53906" stroke-linecap="round" stroke-linejoin="round"/>
<path d="M27.3526 49.9362C26.5848 49.9362 25.9261 49.7514 25.3762 49.3817C24.8265 49.012 24.4615 48.448 24.2814 47.6896L25.9876 46.7796C26.1014 47.2062 26.2673 47.5238 26.4853 47.7323C26.7128 47.9408 27.0067 48.0451 27.3668 48.0451C27.8408 48.0451 28.1773 47.8745 28.3764 47.5332C28.5754 47.1825 28.675 46.6422 28.675 45.9123V39.3575H30.7367V46.1114C30.7367 47.4669 30.4192 48.4432 29.784 49.0404C29.149 49.6376 28.3385 49.9362 27.3526 49.9362ZM36.402 39.3575C37.2267 39.3575 37.9471 39.4996 38.5633 39.784C39.1794 40.0684 39.6534 40.4713 39.9852 40.9926C40.3264 41.5045 40.497 42.1064 40.497 42.7984C40.497 43.4809 40.3264 44.0828 39.9852 44.6042C39.6534 45.116 39.1794 45.5142 38.5633 45.7985C37.9471 46.0735 37.2267 46.2109 36.402 46.2109H34.8806V49.7656H32.8189V39.3575H36.402ZM36.1745 44.462C36.8191 44.462 37.3357 44.3246 37.7244 44.0496C38.113 43.7653 38.3074 43.3481 38.3074 42.7984C38.3074 42.2486 38.113 41.8315 37.7244 41.5471C37.3357 41.2533 36.8191 41.1064 36.1745 41.1064H34.8806V44.462H36.1745ZM46.4649 45.7701V43.9928H50.4461V48.23C50.1238 48.7513 49.6072 49.1684 48.8963 49.4812C48.1949 49.7846 47.4175 49.9362 46.5644 49.9362C45.5502 49.9362 44.6496 49.7087 43.8628 49.2537C43.0761 48.7987 42.4647 48.1636 42.0286 47.3484C41.5926 46.5331 41.3745 45.5995 41.3745 44.5473C41.3745 43.4857 41.5974 42.5472 42.0428 41.732C42.4978 40.9167 43.1188 40.2864 43.9055 39.8409C44.6923 39.3953 45.5644 39.1726 46.5217 39.1726C47.4792 39.1726 48.3086 39.3907 49.01 39.8267C49.721 40.2532 50.1997 40.803 50.4461 41.476L48.7399 42.4571C48.5313 42.0211 48.2328 41.6799 47.8441 41.4334C47.4555 41.1775 46.9957 41.0495 46.4649 41.0495C45.9057 41.0495 45.4032 41.1917 44.9577 41.476C44.5122 41.7604 44.1614 42.168 43.9055 42.6989C43.6495 43.2297 43.5216 43.8458 43.5216 44.5473C43.5216 45.2677 43.6495 45.8933 43.9055 46.4242C44.171 46.955 44.5407 47.3626 45.0145 47.647C45.498 47.9314 46.0573 48.0735 46.6924 48.0735C47.4317 48.0735 48.01 47.8697 48.427 47.4621V45.7701H46.4649Z" fill="white"/>
</g>
</g>
<defs>
<filter id="filter0_d_1_203" x="4.65234" y="2.03125" width="32.5" height="32.5" filterUnits="userSpaceOnUse" color-interpolation-filters="sRGB">
<feFlood flood-opacity="0" result="BackgroundImageFix"/>
<feColorMatrix in="SourceAlpha" type="matrix" values="0 0 0 0 0 0 0 0 0 0 0 0 0 0 0 0 0 0 127 0" result="hardAlpha"/>
<feOffset/>
<feGaussianBlur stdDeviation="2.03125"/>
<feComposite in2="hardAlpha" operator="out"/>
<feColorMatrix type="matrix" values="0 0 0 0 0.114423 0 0 0 0 0.51 0 0 0 0 0.287692 0 0 0 0.4 0"/>
<feBlend mode="normal" in2="BackgroundImageFix" result="effect1_dropShadow_1_203"/>
<feBlend mode="normal" in="SourceGraphic" in2="effect1_dropShadow_1_203" result="shape"/>
</filter>
<linearGradient id="paint0_linear_1_203" x1="20.9023" y1="6.09375" x2="20.9023" y2="30.4688" gradientUnits="userSpaceOnUse">
<stop offset="0.0610702" stop-color="#2DCDB0"/>
<stop offset="1" stop-color="#1D8E7A"/>
</linearGradient>
<clipPath id="clip0_1_203">
<rect width="65" height="65" fill="white" transform="translate(0.589844)"/>
</clipPath>
<clipPath id="clip1_1_203">
<rect width="65" height="65" fill="white" transform="translate(0.589844)"/>
</clipPath>
</defs>
</svg>
