<svg width="66" height="65" viewBox="0 0 66 65" fill="none" xmlns="http://www.w3.org/2000/svg">
<g clip-path="url(#clip0_1_290)">
<g clip-path="url(#clip1_1_290)">
<path d="M17.05 17.2656C17.05 15.022 18.8689 13.2031 21.1125 13.2031H53.6125C55.8562 13.2031 57.675 15.022 57.675 17.2656V54.8438C57.675 57.0874 55.8562 58.9062 53.6125 58.9062H21.1125C18.8689 58.9062 17.05 57.0874 17.05 54.8438V17.2656Z" fill="#2FBA6C"/>
<path d="M17.05 43.6719H57.675V54.8438C57.675 57.0874 55.8562 58.9062 53.6125 58.9062H21.1125C18.8689 58.9062 17.05 57.0874 17.05 54.8438V43.6719Z" fill="#2CAD65"/>
<path d="M17.05 17.2656C17.05 15.022 18.8689 13.2031 21.1125 13.2031H53.6125C55.8562 13.2031 57.675 15.022 57.675 17.2656V28.4375H17.05V17.2656Z" fill="#32C773"/>
<g filter="url(#filter0_d_1_290)">
<path d="M8.92505 10.1562C8.92505 7.91259 10.7439 6.09375 12.9875 6.09375H29.2375C31.4812 6.09375 33.3 7.91259 33.3 10.1562V26.4062C33.3 28.6499 31.4812 30.4688 29.2375 30.4688H12.9875C10.7439 30.4688 8.92505 28.6499 8.92505 26.4062V10.1562Z" fill="url(#paint0_linear_1_290)"/>
</g>
<path d="M27.2386 19.3296L23.1433 15.2344M27.2386 19.3296L23.1433 23.3594M27.2386 19.3296H16.0667C14.9449 19.3296 14.0354 18.4202 14.0354 17.2983V13.2031" stroke="white" stroke-width="2.53906" stroke-linecap="round" stroke-linejoin="round"/>
<path d="M27.8424 44.984H24.2228V47.2022H28.4031V48.75H22.4556V39.8287H28.269V41.3644H24.2228V43.4606H27.8424V44.984ZM32.9417 39.8287C33.6486 39.8287 34.2661 39.9506 34.7942 40.1944C35.3223 40.4381 35.7286 40.7834 36.0129 41.2303C36.3054 41.669 36.4517 42.185 36.4517 42.7781C36.4517 43.3631 36.3054 43.879 36.0129 44.3259C35.7286 44.7647 35.3223 45.1059 34.7942 45.3497C34.2661 45.5853 33.6486 45.7031 32.9417 45.7031H31.6376V48.75H29.8704V39.8287H32.9417ZM32.7467 44.204C33.2992 44.204 33.742 44.0862 34.0751 43.8506C34.4083 43.6069 34.5748 43.2494 34.5748 42.7781C34.5748 42.3069 34.4083 41.9494 34.0751 41.7056C33.742 41.4537 33.2992 41.3278 32.7467 41.3278H31.6376V44.204H32.7467ZM43.3342 39.8287H45.1014V45.1425C45.1014 45.9062 44.9511 46.5725 44.6504 47.1412C44.3498 47.7019 43.9151 48.1365 43.3464 48.4453C42.7776 48.7459 42.1032 48.8962 41.3232 48.8962C40.5351 48.8962 39.8567 48.7459 39.2879 48.4453C38.7192 48.1365 38.2845 47.7019 37.9839 47.1412C37.6832 46.5725 37.5329 45.9062 37.5329 45.1425V39.8287H39.3001V44.7159C39.3001 45.5772 39.4748 46.219 39.8242 46.6415C40.1817 47.064 40.6814 47.2753 41.3232 47.2753C41.957 47.2753 42.4486 47.064 42.7979 46.6415C43.1554 46.219 43.3342 45.5772 43.3342 44.7159V39.8287ZM52.326 44.1187C53.3091 44.4681 53.8007 45.1547 53.8007 46.1784C53.8007 46.9828 53.5041 47.6125 52.911 48.0675C52.326 48.5225 51.5013 48.75 50.4369 48.75H46.8782V39.8287H50.1079C51.0585 39.8287 51.8304 40.0481 52.4235 40.4869C53.0248 40.9175 53.3254 41.5269 53.3254 42.315C53.3254 43.1356 52.9923 43.7369 52.326 44.1187ZM48.6088 41.3644V43.4728H49.9373C50.4166 43.4728 50.7944 43.3753 51.0707 43.1803C51.3551 42.9772 51.4973 42.709 51.4973 42.3759C51.4973 42.0509 51.3591 41.8031 51.0829 41.6325C50.8066 41.4537 50.4248 41.3644 49.9373 41.3644H48.6088ZM50.2907 47.2144C50.827 47.2144 51.2373 47.1169 51.5216 46.9219C51.8141 46.7269 51.9604 46.4506 51.9604 46.0931C51.9604 45.7356 51.8141 45.4553 51.5216 45.2522C51.2373 45.049 50.8229 44.9475 50.2785 44.9475H48.6088V47.2144H50.2907Z" fill="white"/>
</g>
</g>
<defs>
<filter id="filter0_d_1_290" x="5.87817" y="4.0625" width="30.4688" height="30.4688" filterUnits="userSpaceOnUse" color-interpolation-filters="sRGB">
<feFlood flood-opacity="0" result="BackgroundImageFix"/>
<feColorMatrix in="SourceAlpha" type="matrix" values="0 0 0 0 0 0 0 0 0 0 0 0 0 0 0 0 0 0 127 0" result="hardAlpha"/>
<feOffset dy="1.01562"/>
<feGaussianBlur stdDeviation="1.52344"/>
<feComposite in2="hardAlpha" operator="out"/>
<feColorMatrix type="matrix" values="0 0 0 0 0.114423 0 0 0 0 0.51 0 0 0 0 0.287692 0 0 0 0.4 0"/>
<feBlend mode="normal" in2="BackgroundImageFix" result="effect1_dropShadow_1_290"/>
<feBlend mode="normal" in="SourceGraphic" in2="effect1_dropShadow_1_290" result="shape"/>
</filter>
<linearGradient id="paint0_linear_1_290" x1="21.1125" y1="6.09375" x2="21.1125" y2="30.4688" gradientUnits="userSpaceOnUse">
<stop stop-color="#34CD78"/>
<stop offset="1" stop-color="#229956"/>
</linearGradient>
<clipPath id="clip0_1_290">
<rect width="65" height="65" fill="white" transform="translate(0.800049)"/>
</clipPath>
<clipPath id="clip1_1_290">
<rect width="65" height="65" fill="white" transform="translate(0.800049)"/>
</clipPath>
</defs>
</svg>
