<svg width="66" height="65" viewBox="0 0 66 65" fill="none" xmlns="http://www.w3.org/2000/svg">
<g clip-path="url(#clip0_1_175)">
<g clip-path="url(#clip1_1_175)">
<path d="M57.0649 17.2656C57.0649 15.022 55.2461 13.2031 53.0024 13.2031H20.5024C18.2588 13.2031 16.4399 15.022 16.4399 17.2656V54.8438C16.4399 57.0874 18.2588 58.9062 20.5024 58.9062H53.0024C55.2461 58.9062 57.0649 57.0874 57.0649 54.8438V17.2656Z" fill="#FB7545"/>
<path d="M57.0649 43.6719H16.4399V54.8438C16.4399 57.0874 18.2588 58.9062 20.5024 58.9062H53.0024C55.2461 58.9062 57.0649 57.0874 57.0649 54.8438V43.6719Z" fill="#FB622B"/>
<path d="M57.0649 17.2656C57.0649 15.022 55.2461 13.2031 53.0024 13.2031H20.5024C18.2588 13.2031 16.4399 15.022 16.4399 17.2656V28.4375H57.0649V17.2656Z" fill="#FB865D"/>
<path d="M31.6743 50.7812V43.1641M31.6743 43.1641H40.8149C43.0586 43.1641 44.8774 41.3452 44.8774 39.1016V38.5938C44.8774 36.3501 43.0586 34.5312 40.8149 34.5312H31.6743V39.6094V43.1641Z" stroke="white" stroke-width="4.0625" stroke-linecap="round" stroke-linejoin="round"/>
<g filter="url(#filter0_d_1_175)">
<path d="M8.31494 10.1562C8.31494 7.91259 10.1338 6.09375 12.3774 6.09375H28.6274C30.8711 6.09375 32.6899 7.91259 32.6899 10.1562V26.4062C32.6899 28.6499 30.8711 30.4688 28.6274 30.4688H12.3774C10.1338 30.4688 8.31494 28.6499 8.31494 26.4062V10.1562Z" fill="url(#paint0_linear_1_175)"/>
</g>
<path d="M27.6441 19.3296L23.5488 15.2344M27.6441 19.3296L23.5488 23.3594M27.6441 19.3296H16.4722C15.3504 19.3296 14.4409 18.4202 14.4409 17.2983V13.2031" stroke="white" stroke-width="2.53906" stroke-linecap="round" stroke-linejoin="round"/>
</g>
</g>
<defs>
<filter id="filter0_d_1_175" x="5.26807" y="4.0625" width="30.4688" height="30.4688" filterUnits="userSpaceOnUse" color-interpolation-filters="sRGB">
<feFlood flood-opacity="0" result="BackgroundImageFix"/>
<feColorMatrix in="SourceAlpha" type="matrix" values="0 0 0 0 0 0 0 0 0 0 0 0 0 0 0 0 0 0 127 0" result="hardAlpha"/>
<feOffset dy="1.01562"/>
<feGaussianBlur stdDeviation="1.52344"/>
<feComposite in2="hardAlpha" operator="out"/>
<feColorMatrix type="matrix" values="0 0 0 0 0.854902 0 0 0 0 0.4 0 0 0 0 0.239216 0 0 0 0.4 0"/>
<feBlend mode="normal" in2="BackgroundImageFix" result="effect1_dropShadow_1_175"/>
<feBlend mode="normal" in="SourceGraphic" in2="effect1_dropShadow_1_175" result="shape"/>
</filter>
<linearGradient id="paint0_linear_1_175" x1="19.9946" y1="5.58594" x2="19.9946" y2="29.9609" gradientUnits="userSpaceOnUse">
<stop stop-color="#FF7C43"/>
<stop offset="1" stop-color="#E45623"/>
</linearGradient>
<clipPath id="clip0_1_175">
<rect width="65" height="65" fill="white" transform="translate(0.189941)"/>
</clipPath>
<clipPath id="clip1_1_175">
<rect width="65" height="65" fill="white" transform="translate(0.189941)"/>
</clipPath>
</defs>
</svg>
