<svg width="65" height="65" viewBox="0 0 65 65" fill="none" xmlns="http://www.w3.org/2000/svg">
<g clip-path="url(#clip0_1_161)">
<g clip-path="url(#clip1_1_161)">
<path d="M16.25 17.2656C16.25 15.022 18.0689 13.2031 20.3125 13.2031H52.8125C55.0561 13.2031 56.875 15.022 56.875 17.2656V54.8438C56.875 57.0874 55.0561 58.9062 52.8125 58.9062H20.3125C18.0689 58.9062 16.25 57.0874 16.25 54.8438V17.2656Z" fill="#3B88FB"/>
<path d="M16.25 43.6719H56.875V54.8438C56.875 57.0874 55.0561 58.9062 52.8125 58.9062H20.3125C18.0689 58.9062 16.25 57.0874 16.25 54.8438V43.6719Z" fill="#397EE5"/>
<path d="M26.4062 35.5469L32.0661 48.75L36.5625 36.097L41.1218 48.75L46.7188 35.5469" stroke="white" stroke-width="4.0625" stroke-linecap="round" stroke-linejoin="round"/>
<path d="M16.25 17.2656C16.25 15.022 18.0689 13.2031 20.3125 13.2031H52.8125C55.0561 13.2031 56.875 15.022 56.875 17.2656V28.4375H16.25V17.2656Z" fill="#4C92FF"/>
<g filter="url(#filter0_d_1_161)">
<path d="M8.125 10.1562C8.125 7.91259 9.94384 6.09375 12.1875 6.09375H28.4375C30.6811 6.09375 32.5 7.91259 32.5 10.1562V26.4062C32.5 28.6499 30.6811 30.4688 28.4375 30.4688H12.1875C9.94384 30.4688 8.125 28.6499 8.125 26.4062V10.1562Z" fill="url(#paint0_linear_1_161)"/>
</g>
<path d="M27.4542 19.3292L23.3589 15.2339M27.4542 19.3292L23.3589 23.3589M27.4542 19.3292L16.2822 19.3291C15.1605 19.3291 14.251 18.4197 14.251 17.2978V13.2026" stroke="white" stroke-width="2.53906" stroke-linecap="round" stroke-linejoin="round"/>
</g>
</g>
<defs>
<filter id="filter0_d_1_161" x="5.07812" y="3.04688" width="30.4688" height="30.4688" filterUnits="userSpaceOnUse" color-interpolation-filters="sRGB">
<feFlood flood-opacity="0" result="BackgroundImageFix"/>
<feColorMatrix in="SourceAlpha" type="matrix" values="0 0 0 0 0 0 0 0 0 0 0 0 0 0 0 0 0 0 127 0" result="hardAlpha"/>
<feOffset/>
<feGaussianBlur stdDeviation="1.52344"/>
<feComposite in2="hardAlpha" operator="out"/>
<feColorMatrix type="matrix" values="0 0 0 0 0.120149 0 0 0 0 0.346717 0 0 0 0 0.69 0 0 0 0.4 0"/>
<feBlend mode="normal" in2="BackgroundImageFix" result="effect1_dropShadow_1_161"/>
<feBlend mode="normal" in="SourceGraphic" in2="effect1_dropShadow_1_161" result="shape"/>
</filter>
<linearGradient id="paint0_linear_1_161" x1="20.3125" y1="6.09375" x2="20.3125" y2="30.4688" gradientUnits="userSpaceOnUse">
<stop stop-color="#3692E9"/>
<stop offset="1" stop-color="#2365C9"/>
</linearGradient>
<clipPath id="clip0_1_161">
<rect width="65" height="65" fill="white"/>
</clipPath>
<clipPath id="clip1_1_161">
<rect width="65" height="65" fill="white"/>
</clipPath>
</defs>
</svg>
