<svg width="66" height="65" viewBox="0 0 66 65" fill="none" xmlns="http://www.w3.org/2000/svg">
<g clip-path="url(#clip0_1_260)">
<g clip-path="url(#clip1_1_260)">
<path d="M16.6401 17.2656C16.6401 15.022 18.459 13.2031 20.7026 13.2031H53.2026C55.4463 13.2031 57.2651 15.022 57.2651 17.2656V54.8438C57.2651 57.0874 55.4463 58.9062 53.2026 58.9062H20.7026C18.459 58.9062 16.6401 57.0874 16.6401 54.8438V17.2656Z" fill="#3B88FB"/>
<path d="M16.6401 43.6719H57.2651V54.8438C57.2651 57.0874 55.4463 58.9062 53.2026 58.9062H20.7026C18.459 58.9062 16.6401 57.0874 16.6401 54.8438V43.6719Z" fill="#397EE5"/>
<path d="M16.6401 17.2656C16.6401 15.022 18.459 13.2031 20.7026 13.2031H53.2026C55.4463 13.2031 57.2651 15.022 57.2651 17.2656V28.4375H16.6401V17.2656Z" fill="#4C92FF"/>
<path d="M31.7664 38.7338C31.7664 39.1837 31.5029 39.592 31.0928 39.7773L24.4389 42.7837V42.9527L31.0928 45.959C31.5029 46.1443 31.7664 46.5526 31.7664 47.0026C31.7664 47.8522 30.8738 48.4059 30.1127 48.0286L22.5107 44.2602C22.0253 44.0196 21.7183 43.5247 21.7183 42.983V42.7534C21.7183 42.2117 22.0253 41.7168 22.5107 41.4762L30.1127 37.7078C30.8738 37.3304 31.7664 37.8842 31.7664 38.7338Z" fill="white"/>
<path d="M36.1317 50.7511C36.0036 51.285 35.5262 51.6615 34.977 51.6615C34.2102 51.6615 33.6445 50.9456 33.8218 50.1996L37.8393 33.2917C37.9683 32.7482 38.4538 32.3646 39.0124 32.3646C39.7922 32.3646 40.367 33.0935 40.1851 33.8517L36.1317 50.7511Z" fill="white"/>
<path d="M42.8125 38.0671C42.4025 37.8818 42.1389 37.4736 42.1389 37.0235C42.1389 36.174 43.0314 35.6203 43.7926 35.9976L51.3946 39.766C51.88 40.0066 52.187 40.5015 52.187 41.0433V41.2727C52.187 41.8144 51.88 42.3094 51.3946 42.55L43.7926 46.3184C43.0314 46.6957 42.1389 46.142 42.1389 45.2925C42.1389 44.8424 42.4024 44.4341 42.8125 44.2489L49.3893 41.2773C49.4362 41.2562 49.4663 41.2094 49.4663 41.1579C49.4663 41.1066 49.4362 41.0598 49.3893 41.0387L42.8125 38.0671Z" fill="white"/>
<g filter="url(#filter0_d_1_260)">
<path d="M6.48389 12.1875C6.48389 9.94384 8.30273 8.125 10.5464 8.125H26.7964C29.04 8.125 30.8589 9.94384 30.8589 12.1875V28.4375C30.8589 30.6811 29.04 32.5 26.7964 32.5H10.5464C8.30273 32.5 6.48389 30.6811 6.48389 28.4375V12.1875Z" fill="url(#paint0_linear_1_260)"/>
</g>
<path d="M25.8131 21.3608L21.7178 17.2656M25.8131 21.3608L21.7178 25.3906M25.8131 21.3608H14.6411C13.5194 21.3608 12.6099 20.4514 12.6099 19.3296V15.2344" stroke="white" stroke-width="2.53906" stroke-linecap="round" stroke-linejoin="round"/>
</g>
</g>
<defs>
<filter id="filter0_d_1_260" x="3.43701" y="6.09375" width="30.4688" height="30.4688" filterUnits="userSpaceOnUse" color-interpolation-filters="sRGB">
<feFlood flood-opacity="0" result="BackgroundImageFix"/>
<feColorMatrix in="SourceAlpha" type="matrix" values="0 0 0 0 0 0 0 0 0 0 0 0 0 0 0 0 0 0 127 0" result="hardAlpha"/>
<feOffset dy="1.01562"/>
<feGaussianBlur stdDeviation="1.52344"/>
<feComposite in2="hardAlpha" operator="out"/>
<feColorMatrix type="matrix" values="0 0 0 0 0.120149 0 0 0 0 0.346717 0 0 0 0 0.69 0 0 0 0.4 0"/>
<feBlend mode="normal" in2="BackgroundImageFix" result="effect1_dropShadow_1_260"/>
<feBlend mode="normal" in="SourceGraphic" in2="effect1_dropShadow_1_260" result="shape"/>
</filter>
<linearGradient id="paint0_linear_1_260" x1="18.6714" y1="8.125" x2="18.6714" y2="32.5" gradientUnits="userSpaceOnUse">
<stop stop-color="#3692E9"/>
<stop offset="1" stop-color="#2365C9"/>
</linearGradient>
<clipPath id="clip0_1_260">
<rect width="65" height="65" fill="white" transform="translate(0.390137)"/>
</clipPath>
<clipPath id="clip1_1_260">
<rect width="65" height="65" fill="white" transform="translate(0.390137)"/>
</clipPath>
</defs>
</svg>
