<svg width="66" height="65" viewBox="0 0 66 65" fill="none" xmlns="http://www.w3.org/2000/svg">
<g clip-path="url(#clip0_1_245)">
<g clip-path="url(#clip1_1_245)">
<path d="M57.0649 17.2656C57.0649 15.022 55.2461 13.2031 53.0024 13.2031H20.5024C18.2588 13.2031 16.4399 15.022 16.4399 17.2656V54.8438C16.4399 57.0874 18.2588 58.9062 20.5024 58.9062H53.0024C55.2461 58.9062 57.0649 57.0874 57.0649 54.8438V17.2656Z" fill="#FF901F"/>
<path d="M16.4399 54.8438C16.4399 57.0874 18.2588 58.9062 20.5024 58.9062H53.0024C55.2461 58.9062 57.0649 57.0874 57.0649 54.8438V43.6719H16.4399V54.8438Z" fill="#F28514"/>
<path d="M16.4399 17.2656C16.4399 15.022 18.2588 13.2031 20.5024 13.2031H53.0024C55.2461 13.2031 57.0649 15.022 57.0649 17.2656V28.4375H16.4399V17.2656Z" fill="#FF9E3B"/>
<g filter="url(#filter0_d_1_245)">
<path d="M8.31494 10.1562C8.31494 7.91259 10.1338 6.09375 12.3774 6.09375H28.6274C30.8711 6.09375 32.6899 7.91259 32.6899 10.1562V26.4062C32.6899 28.6499 30.8711 30.4688 28.6274 30.4688H12.3774C10.1338 30.4688 8.31494 28.6499 8.31494 26.4062V10.1562Z" fill="url(#paint0_linear_1_245)"/>
</g>
<path d="M27.6441 19.3296L23.5488 15.2344M27.6441 19.3296L23.5488 23.3594M27.6441 19.3296H16.4722C15.3504 19.3296 14.4409 18.4202 14.4409 17.2983V13.2031" stroke="white" stroke-width="2.53906" stroke-linecap="round" stroke-linejoin="round"/>
<path d="M26.8561 47.1704L27.7613 48.0633L26.6406 48.716C26.5051 48.796 26.3327 48.7715 26.2218 48.6605C26.1048 48.5435 26.0864 48.365 26.1726 48.2234L26.8561 47.1704ZM44.4922 28.4012L46.4627 30.3532L30.6679 46.2898C30.3229 46.6408 29.9351 46.9425 29.5101 47.1889L28.0938 47.9217L27.0347 46.8687L27.8106 45.4462C28.0631 45.0582 28.3524 44.6949 28.6788 44.3685L44.4922 28.4012ZM49.0245 27.8531L46.8077 30.0884L44.8371 28.1364L47.0539 25.9011C47.5959 25.3592 48.4702 25.3531 49.0122 25.8949C49.5602 26.4306 49.5602 27.3051 49.0245 27.8531Z" fill="white"/>
<path d="M57.0649 49.8177V50.6798H26.0116C25.7735 50.6798 25.5806 50.4868 25.5806 50.2488C25.5806 50.0107 25.7735 49.8177 26.0116 49.8177H57.0649Z" fill="white"/>
</g>
</g>
<defs>
<filter id="filter0_d_1_245" x="5.26807" y="3.04688" width="30.4688" height="30.4688" filterUnits="userSpaceOnUse" color-interpolation-filters="sRGB">
<feFlood flood-opacity="0" result="BackgroundImageFix"/>
<feColorMatrix in="SourceAlpha" type="matrix" values="0 0 0 0 0 0 0 0 0 0 0 0 0 0 0 0 0 0 127 0" result="hardAlpha"/>
<feOffset/>
<feGaussianBlur stdDeviation="1.52344"/>
<feComposite in2="hardAlpha" operator="out"/>
<feColorMatrix type="matrix" values="0 0 0 0 0.960784 0 0 0 0 0.505882 0 0 0 0 0.0392157 0 0 0 0.4 0"/>
<feBlend mode="normal" in2="BackgroundImageFix" result="effect1_dropShadow_1_245"/>
<feBlend mode="normal" in="SourceGraphic" in2="effect1_dropShadow_1_245" result="shape"/>
</filter>
<linearGradient id="paint0_linear_1_245" x1="20.5024" y1="6.09375" x2="20.5024" y2="30.4688" gradientUnits="userSpaceOnUse">
<stop stop-color="#FF9120"/>
<stop offset="1" stop-color="#E67500"/>
</linearGradient>
<clipPath id="clip0_1_245">
<rect width="65" height="65" fill="white" transform="translate(0.189941)"/>
</clipPath>
<clipPath id="clip1_1_245">
<rect width="65" height="65" fill="white" transform="translate(0.189941)"/>
</clipPath>
</defs>
</svg>
