<svg width="66" height="65" viewBox="0 0 66 65" fill="none" xmlns="http://www.w3.org/2000/svg">
<g clip-path="url(#clip0_1_189)">
<g clip-path="url(#clip1_1_189)">
<path d="M16.6401 17.2656C16.6401 15.022 18.459 13.2031 20.7026 13.2031H53.2026C55.4463 13.2031 57.2651 15.022 57.2651 17.2656V54.8438C57.2651 57.0874 55.4463 58.9062 53.2026 58.9062H20.7026C18.459 58.9062 16.6401 57.0874 16.6401 54.8438V17.2656Z" fill="#2FBA6C"/>
<path d="M16.6401 43.6719H57.2651V54.8438C57.2651 57.0874 55.4463 58.9062 53.2026 58.9062H20.7026C18.459 58.9062 16.6401 57.0874 16.6401 54.8438V43.6719Z" fill="#2CAD65"/>
<path d="M16.6401 17.2656C16.6401 15.022 18.459 13.2031 20.7026 13.2031H53.2026C55.4463 13.2031 57.2651 15.022 57.2651 17.2656V28.4375H16.6401V17.2656Z" fill="#32C773"/>
<g filter="url(#filter0_d_1_189)">
<path d="M8.51514 10.1562C8.51514 7.91259 10.334 6.09375 12.5776 6.09375H28.8276C31.0713 6.09375 32.8901 7.91259 32.8901 10.1562V26.4062C32.8901 28.6499 31.0713 30.4688 28.8276 30.4688H12.5776C10.334 30.4688 8.51514 28.6499 8.51514 26.4062V10.1562Z" fill="url(#paint0_linear_1_189)"/>
</g>
<path d="M26.8287 19.3296L22.7334 15.2344M26.8287 19.3296L22.7334 23.3594M26.8287 19.3296H15.6567C14.535 19.3296 13.6255 18.4202 13.6255 17.2983V13.2031" stroke="white" stroke-width="2.53906" stroke-linecap="round" stroke-linejoin="round"/>
<path d="M43.0464 50.7812L36.9526 42.6562M36.9526 42.6562L30.8589 34.5312M36.9526 42.6562L43.0464 34.5312M36.9526 42.6562L30.8589 50.7812" stroke="white" stroke-width="4.0625" stroke-linecap="round" stroke-linejoin="round"/>
</g>
</g>
<defs>
<filter id="filter0_d_1_189" x="5.46826" y="4.0625" width="30.4688" height="30.4688" filterUnits="userSpaceOnUse" color-interpolation-filters="sRGB">
<feFlood flood-opacity="0" result="BackgroundImageFix"/>
<feColorMatrix in="SourceAlpha" type="matrix" values="0 0 0 0 0 0 0 0 0 0 0 0 0 0 0 0 0 0 127 0" result="hardAlpha"/>
<feOffset dy="1.01562"/>
<feGaussianBlur stdDeviation="1.52344"/>
<feComposite in2="hardAlpha" operator="out"/>
<feColorMatrix type="matrix" values="0 0 0 0 0.114423 0 0 0 0 0.51 0 0 0 0 0.287692 0 0 0 0.4 0"/>
<feBlend mode="normal" in2="BackgroundImageFix" result="effect1_dropShadow_1_189"/>
<feBlend mode="normal" in="SourceGraphic" in2="effect1_dropShadow_1_189" result="shape"/>
</filter>
<linearGradient id="paint0_linear_1_189" x1="20.7026" y1="6.09375" x2="20.7026" y2="30.4688" gradientUnits="userSpaceOnUse">
<stop stop-color="#34CD78"/>
<stop offset="1" stop-color="#229956"/>
</linearGradient>
<clipPath id="clip0_1_189">
<rect width="65" height="65" fill="white" transform="translate(0.390137)"/>
</clipPath>
<clipPath id="clip1_1_189">
<rect width="65" height="65" fill="white" transform="translate(0.390137)"/>
</clipPath>
</defs>
</svg>
