<svg width="66" height="65" viewBox="0 0 66 65" fill="none" xmlns="http://www.w3.org/2000/svg">
<g clip-path="url(#clip0_1_276)">
<g clip-path="url(#clip1_1_276)">
<path d="M57.4648 17.2656C57.4648 15.022 55.646 13.2031 53.4023 13.2031H20.9023C18.6587 13.2031 16.8398 15.022 16.8398 17.2656V54.8438C16.8398 57.0874 18.6587 58.9062 20.9023 58.9062H53.4023C55.646 58.9062 57.4648 57.0874 57.4648 54.8438V17.2656Z" fill="#FB7545"/>
<path d="M57.4648 43.6719H16.8398V54.8438C16.8398 57.0874 18.6587 58.9062 20.9023 58.9062H53.4023C55.646 58.9062 57.4648 57.0874 57.4648 54.8438V43.6719Z" fill="#FB622B"/>
<path d="M57.4648 17.2656C57.4648 15.022 55.646 13.2031 53.4023 13.2031H20.9023C18.6587 13.2031 16.8398 15.022 16.8398 17.2656V28.4375H57.4648V17.2656Z" fill="#FB865D"/>
<g filter="url(#filter0_d_1_276)">
<path d="M8.71484 10.1562C8.71484 7.91259 10.5337 6.09375 12.7773 6.09375H29.0273C31.271 6.09375 33.0898 7.91259 33.0898 10.1562V26.4062C33.0898 28.6499 31.271 30.4688 29.0273 30.4688H12.7773C10.5337 30.4688 8.71484 28.6499 8.71484 26.4062V10.1562Z" fill="url(#paint0_linear_1_276)"/>
</g>
<path d="M28.044 19.3296L23.9487 15.2344M28.044 19.3296L23.9487 23.3594M28.044 19.3296H16.8721C15.7503 19.3296 14.8408 18.4202 14.8408 17.2983V13.2031" stroke="white" stroke-width="2.53906" stroke-linecap="round" stroke-linejoin="round"/>
<path d="M27.5394 39.3575C28.5537 39.3575 29.4684 39.5614 30.2837 39.969C31.1083 40.3765 31.7576 40.9737 32.2316 41.7605C32.7056 42.5378 32.9426 43.4668 32.9426 44.5474C32.9426 45.628 32.7056 46.5617 32.2316 47.3485C31.7576 48.1353 31.1131 48.7371 30.2979 49.1543C29.4826 49.5618 28.5632 49.7657 27.5394 49.7657H24.0701V39.3575H27.5394ZM27.2977 48.0025C28.4162 48.0025 29.2741 47.704 29.8713 47.1068C30.4685 46.5096 30.7671 45.6565 30.7671 44.5474C30.7671 43.4573 30.4637 42.6136 29.8571 42.0165C29.2599 41.4098 28.4068 41.1065 27.2977 41.1065H26.1318V48.0025H27.2977ZM42.8559 39.3575L39.2017 44.4336L43.0265 49.7657H40.4671L37.9362 46.1115L35.391 49.7657H33.0023L36.8129 44.4763L33.1729 39.3575H35.6896L38.0784 42.7985L40.4671 39.3575H42.8559ZM44.1902 39.3575H50.9726V41.1633H46.2519V43.8222H50.4749V45.6138H46.2519V49.7657H44.1902V39.3575Z" fill="white"/>
</g>
</g>
<defs>
<filter id="filter0_d_1_276" x="5.66797" y="4.0625" width="30.4688" height="30.4688" filterUnits="userSpaceOnUse" color-interpolation-filters="sRGB">
<feFlood flood-opacity="0" result="BackgroundImageFix"/>
<feColorMatrix in="SourceAlpha" type="matrix" values="0 0 0 0 0 0 0 0 0 0 0 0 0 0 0 0 0 0 127 0" result="hardAlpha"/>
<feOffset dy="1.01562"/>
<feGaussianBlur stdDeviation="1.52344"/>
<feComposite in2="hardAlpha" operator="out"/>
<feColorMatrix type="matrix" values="0 0 0 0 0.854902 0 0 0 0 0.4 0 0 0 0 0.239216 0 0 0 0.4 0"/>
<feBlend mode="normal" in2="BackgroundImageFix" result="effect1_dropShadow_1_276"/>
<feBlend mode="normal" in="SourceGraphic" in2="effect1_dropShadow_1_276" result="shape"/>
</filter>
<linearGradient id="paint0_linear_1_276" x1="20.3945" y1="5.58594" x2="20.3945" y2="29.9609" gradientUnits="userSpaceOnUse">
<stop stop-color="#FF7C43"/>
<stop offset="1" stop-color="#E45623"/>
</linearGradient>
<clipPath id="clip0_1_276">
<rect width="65" height="65" fill="white" transform="translate(0.589844)"/>
</clipPath>
<clipPath id="clip1_1_276">
<rect width="65" height="65" fill="white" transform="translate(0.589844)"/>
</clipPath>
</defs>
</svg>
