<svg width="65" height="65" viewBox="0 0 65 65" fill="none" xmlns="http://www.w3.org/2000/svg">
<g clip-path="url(#clip0_1_75)">
<g clip-path="url(#clip1_1_75)">
<path d="M50.7812 10.1562C50.7812 7.91259 48.9624 6.09375 46.7188 6.09375H14.2188C11.9751 6.09375 10.1562 7.91259 10.1562 10.1562V47.7344C10.1562 49.978 11.9751 51.7969 14.2188 51.7969H46.7188C48.9624 51.7969 50.7812 49.978 50.7812 47.7344V10.1562Z" fill="#FB7545"/>
<path d="M50.7812 36.5625H10.1562V47.7344C10.1562 49.978 11.9751 51.7969 14.2188 51.7969H46.7188C48.9624 51.7969 50.7812 49.978 50.7812 47.7344V36.5625Z" fill="#FB622B"/>
<path d="M50.7812 10.1562C50.7812 7.91259 48.9624 6.09375 46.7188 6.09375H14.2188C11.9751 6.09375 10.1562 7.91259 10.1562 10.1562V21.3281H50.7812V10.1562Z" fill="#FB865D"/>
<path d="M24.375 30.4688V22.8516M24.375 22.8516H33.5156C35.7592 22.8516 37.5781 21.0327 37.5781 18.7891V18.2812C37.5781 16.0376 35.7592 14.2188 33.5156 14.2188H24.375V19.2969V22.8516Z" stroke="white" stroke-width="4.0625" stroke-linecap="round" stroke-linejoin="round"/>
<g filter="url(#filter0_d_1_75)">
<path d="M32.5 36.5625C32.5 34.3189 34.3189 32.5 36.5625 32.5H52.8125C55.0561 32.5 56.875 34.3189 56.875 36.5625V52.8125C56.875 55.0561 55.0561 56.875 52.8125 56.875H36.5625C34.3189 56.875 32.5 55.0561 32.5 52.8125V36.5625Z" fill="url(#paint0_linear_1_75)"/>
</g>
<path d="M51.8292 45.7358L47.7339 41.6406M51.8292 45.7358L47.7339 49.7656M51.8292 45.7358H40.6572C39.5355 45.7358 38.626 44.8264 38.626 43.7046V39.6094" stroke="white" stroke-width="2.53906" stroke-linecap="round" stroke-linejoin="round"/>
</g>
</g>
<defs>
<filter id="filter0_d_1_75" x="29.4531" y="28.4375" width="30.4688" height="30.4688" filterUnits="userSpaceOnUse" color-interpolation-filters="sRGB">
<feFlood flood-opacity="0" result="BackgroundImageFix"/>
<feColorMatrix in="SourceAlpha" type="matrix" values="0 0 0 0 0 0 0 0 0 0 0 0 0 0 0 0 0 0 127 0" result="hardAlpha"/>
<feOffset dy="-1.01562"/>
<feGaussianBlur stdDeviation="1.52344"/>
<feComposite in2="hardAlpha" operator="out"/>
<feColorMatrix type="matrix" values="0 0 0 0 0.854902 0 0 0 0 0.4 0 0 0 0 0.239216 0 0 0 0.4 0"/>
<feBlend mode="normal" in2="BackgroundImageFix" result="effect1_dropShadow_1_75"/>
<feBlend mode="normal" in="SourceGraphic" in2="effect1_dropShadow_1_75" result="shape"/>
</filter>
<linearGradient id="paint0_linear_1_75" x1="44.1797" y1="31.9922" x2="44.1797" y2="56.3672" gradientUnits="userSpaceOnUse">
<stop stop-color="#FF7C43"/>
<stop offset="1" stop-color="#E45623"/>
</linearGradient>
<clipPath id="clip0_1_75">
<rect width="65" height="65" fill="white"/>
</clipPath>
<clipPath id="clip1_1_75">
<rect width="65" height="65" fill="white"/>
</clipPath>
</defs>
</svg>
