<svg width="66" height="65" viewBox="0 0 66 65" fill="none" xmlns="http://www.w3.org/2000/svg">
<g clip-path="url(#clip0_1_1082)">
<g clip-path="url(#clip1_1_1082)">
<path d="M53.0024 12.1875C53.0024 9.94384 51.1836 8.125 48.9399 8.125H16.4399C14.1963 8.125 12.3774 9.94384 12.3774 12.1875V52.8125C12.3774 55.0561 14.1963 56.875 16.4399 56.875H48.9399C51.1836 56.875 53.0024 55.0561 53.0024 52.8125V12.1875Z" fill="#3B88FB"/>
<path d="M53.0024 41.6406H12.3774V52.8125C12.3774 55.0561 14.1963 56.875 16.4399 56.875H48.9399C51.1836 56.875 53.0024 55.0561 53.0024 52.8125V41.6406Z" fill="#397EE5"/>
<path d="M53.0024 12.1875C53.0024 9.94384 51.1836 8.125 48.9399 8.125H16.4399C14.1963 8.125 12.3774 9.94384 12.3774 12.1875V24.375H53.0024V12.1875Z" fill="#4C92FF"/>
<g filter="url(#filter0_d_1_1082)">
<path d="M20.5024 23.3594C20.5024 21.1158 22.3213 19.2969 24.5649 19.2969H40.8149C43.0586 19.2969 44.8774 21.1158 44.8774 23.3594V39.6094C44.8774 41.853 43.0586 43.6719 40.8149 43.6719H24.5649C22.3213 43.6719 20.5024 41.853 20.5024 39.6094V23.3594Z" fill="white"/>
</g>
<path d="M40.226 27.9297C38.3848 29.6628 35.691 30.7558 32.6898 30.7558C29.6886 30.7558 26.9948 29.6628 25.1536 27.9297" stroke="#397EE5" stroke-width="2.53906" stroke-linecap="round" stroke-linejoin="round"/>
<path d="M30.1509 34.0234L29.6431 36.5625" stroke="#397EE5" stroke-width="2.53906" stroke-linecap="round" stroke-linejoin="round"/>
<path d="M35.229 34.0234L35.7368 36.5625" stroke="#397EE5" stroke-width="2.53906" stroke-linecap="round" stroke-linejoin="round"/>
<path d="M25.5806 32.4998L24.0571 34.5314" stroke="#397EE5" stroke-width="2.53906" stroke-linecap="round" stroke-linejoin="round"/>
<path d="M39.7993 32.5L41.3228 34.5312" stroke="#397EE5" stroke-width="2.53906" stroke-linecap="round" stroke-linejoin="round"/>
</g>
</g>
<defs>
<filter id="filter0_d_1_1082" x="17.4556" y="17.2656" width="30.4688" height="30.4688" filterUnits="userSpaceOnUse" color-interpolation-filters="sRGB">
<feFlood flood-opacity="0" result="BackgroundImageFix"/>
<feColorMatrix in="SourceAlpha" type="matrix" values="0 0 0 0 0 0 0 0 0 0 0 0 0 0 0 0 0 0 127 0" result="hardAlpha"/>
<feOffset dy="1.01562"/>
<feGaussianBlur stdDeviation="1.52344"/>
<feComposite in2="hardAlpha" operator="out"/>
<feColorMatrix type="matrix" values="0 0 0 0 0.121569 0 0 0 0 0.345098 0 0 0 0 0.690196 0 0 0 0.4 0"/>
<feBlend mode="normal" in2="BackgroundImageFix" result="effect1_dropShadow_1_1082"/>
<feBlend mode="normal" in="SourceGraphic" in2="effect1_dropShadow_1_1082" result="shape"/>
</filter>
<clipPath id="clip0_1_1082">
<rect width="65" height="65" fill="white" transform="translate(0.189941)"/>
</clipPath>
<clipPath id="clip1_1_1082">
<rect width="65" height="65" fill="white" transform="translate(0.189941)"/>
</clipPath>
</defs>
</svg>
