<svg width="66" height="65" viewBox="0 0 66 65" fill="none" xmlns="http://www.w3.org/2000/svg">
<g clip-path="url(#clip0_1_950)">
<g clip-path="url(#clip1_1_950)">
<g filter="url(#filter0_d_1_950)">
<path d="M45.5101 50.4132L50.9774 44.9459L58.4772 52.4458C59.9871 53.9555 59.9871 56.4033 58.4772 57.9131C56.9675 59.4228 54.5197 59.4228 53.01 57.9131L45.5101 50.4132Z" fill="#FB703F"/>
</g>
<g filter="url(#filter1_d_1_950)">
<path d="M32.8901 49.7656C42.4257 49.7656 50.1558 42.0355 50.1558 32.5C50.1558 22.9645 42.4257 15.2344 32.8901 15.2344C23.3546 15.2344 15.6245 22.9645 15.6245 32.5C15.6245 42.0355 23.3546 49.7656 32.8901 49.7656Z" fill="#FB622B"/>
</g>
<path d="M23.7495 26.0889C23.7495 25.1423 24.5168 24.375 25.4634 24.375H40.3169C41.2635 24.375 42.0308 25.1423 42.0308 26.0889C42.0308 27.0354 41.2635 27.8027 40.3169 27.8027H34.604V40.9424C34.604 41.8889 33.8367 42.6562 32.8901 42.6562C31.9436 42.6562 31.1763 41.8889 31.1763 40.9424V27.8027H25.4634C24.5168 27.8027 23.7495 27.0354 23.7495 26.0889Z" fill="white"/>
<path d="M53.6881 41.8292C52.2841 44.9733 50.2071 47.7429 47.6432 49.9496C43.6575 53.3799 38.4951 55.4495 32.8555 55.4495C20.2338 55.4495 10.0018 45.0829 10.0018 32.295L5.2937 38.2722M12.0183 22.7713C13.1574 20.2173 14.7403 17.9101 16.6676 15.9508C20.8055 11.744 26.5304 9.14062 32.8555 9.14062C45.4773 9.14062 55.7092 19.5072 55.7092 32.295L60.4232 26.3178" stroke="#FB865D" stroke-width="3.30777" stroke-linecap="round" stroke-linejoin="round"/>
</g>
</g>
<defs>
<filter id="filter0_d_1_950" x="42.2024" y="41.6382" width="20.715" height="20.715" filterUnits="userSpaceOnUse" color-interpolation-filters="sRGB">
<feFlood flood-opacity="0" result="BackgroundImageFix"/>
<feColorMatrix in="SourceAlpha" type="matrix" values="0 0 0 0 0 0 0 0 0 0 0 0 0 0 0 0 0 0 127 0" result="hardAlpha"/>
<feOffset/>
<feGaussianBlur stdDeviation="1.65388"/>
<feComposite in2="hardAlpha" operator="out"/>
<feColorMatrix type="matrix" values="0 0 0 0 0.960784 0 0 0 0 0.505882 0 0 0 0 0.0392157 0 0 0 0.4 0"/>
<feBlend mode="normal" in2="BackgroundImageFix" result="effect1_dropShadow_1_950"/>
<feBlend mode="normal" in="SourceGraphic" in2="effect1_dropShadow_1_950" result="shape"/>
</filter>
<filter id="filter1_d_1_950" x="12.5776" y="12.1875" width="40.625" height="40.625" filterUnits="userSpaceOnUse" color-interpolation-filters="sRGB">
<feFlood flood-opacity="0" result="BackgroundImageFix"/>
<feColorMatrix in="SourceAlpha" type="matrix" values="0 0 0 0 0 0 0 0 0 0 0 0 0 0 0 0 0 0 127 0" result="hardAlpha"/>
<feOffset/>
<feGaussianBlur stdDeviation="1.52344"/>
<feComposite in2="hardAlpha" operator="out"/>
<feColorMatrix type="matrix" values="0 0 0 0 0.960784 0 0 0 0 0.505882 0 0 0 0 0.0392157 0 0 0 0.4 0"/>
<feBlend mode="normal" in2="BackgroundImageFix" result="effect1_dropShadow_1_950"/>
<feBlend mode="normal" in="SourceGraphic" in2="effect1_dropShadow_1_950" result="shape"/>
</filter>
<clipPath id="clip0_1_950">
<rect width="65" height="65" fill="white" transform="translate(0.390137)"/>
</clipPath>
<clipPath id="clip1_1_950">
<rect width="65" height="65" fill="white" transform="translate(0.390137)"/>
</clipPath>
</defs>
</svg>
