<svg width="65" height="65" viewBox="0 0 65 65" fill="none" xmlns="http://www.w3.org/2000/svg">
<g clip-path="url(#clip0_1_1222)">
<g clip-path="url(#clip1_1_1222)">
<path d="M53.8281 30.4688C56.0717 30.4688 57.8906 32.2876 57.8906 34.5312V50.7812C57.8906 53.0249 56.0717 54.8438 53.8281 54.8438H12.1875C9.94384 54.8438 8.125 53.0249 8.125 50.7812V34.5312C8.125 32.2876 9.94384 30.4688 12.1875 30.4688H53.8281Z" fill="#A5F0E4"/>
<path d="M8.125 13.2031C8.125 10.9595 9.94384 9.14062 12.1875 9.14062H32.5C34.7436 9.14062 36.5625 10.9595 36.5625 13.2031V50.7812C36.5625 53.0249 34.7436 54.8438 32.5 54.8438H12.1875C9.94384 54.8438 8.125 53.0249 8.125 50.7812V13.2031Z" fill="#2DB49B"/>
<path d="M8.125 39.6094H36.5625V50.7812C36.5625 53.0249 34.7436 54.8438 32.5 54.8438H12.1875C9.94384 54.8438 8.125 53.0249 8.125 50.7812V39.6094Z" fill="#2AAA93"/>
<path d="M8.125 13.2031C8.125 10.9595 9.94384 9.14062 12.1875 9.14062H32.5C34.7436 9.14062 36.5625 10.9595 36.5625 13.2031V24.375H8.125V13.2031Z" fill="#30C0A8"/>
<path d="M41.6406 9.14062H44.2064C49.1661 9.14062 53.1867 13.1612 53.1867 18.1209V24.8561M53.1867 24.8561L48.0563 19.8205M53.1867 24.8561L57.8108 19.8205" stroke="#2AAA93" stroke-width="3.20723" stroke-linecap="round" stroke-linejoin="round"/>
</g>
</g>
<defs>
<clipPath id="clip0_1_1222">
<rect width="65" height="65" fill="white"/>
</clipPath>
<clipPath id="clip1_1_1222">
<rect width="65" height="65" fill="white"/>
</clipPath>
</defs>
</svg>
