<svg width="66" height="65" viewBox="0 0 66 65" fill="none" xmlns="http://www.w3.org/2000/svg">
<g clip-path="url(#clip0_1_963)">
<g clip-path="url(#clip1_1_963)">
<path d="M54.4181 30.4688C56.6617 30.4688 58.4806 32.2876 58.4806 34.5312V50.7812C58.4806 53.0249 56.6617 54.8438 54.4181 54.8438H12.7775C10.5338 54.8438 8.71497 53.0249 8.71497 50.7812V34.5312C8.71497 32.2876 10.5338 30.4688 12.7775 30.4688H54.4181Z" fill="#FFC5B1"/>
<path d="M8.71497 13.2031C8.71497 10.9595 10.5338 9.14062 12.7775 9.14062H33.09C35.3336 9.14062 37.1525 10.9595 37.1525 13.2031V50.7812C37.1525 53.0249 35.3336 54.8438 33.09 54.8438H12.7775C10.5338 54.8438 8.71497 53.0249 8.71497 50.7812V13.2031Z" fill="#FB703F"/>
<path d="M8.71497 39.6094H37.1525V50.7812C37.1525 53.0249 35.3336 54.8438 33.09 54.8438H12.7775C10.5338 54.8438 8.71497 53.0249 8.71497 50.7812V39.6094Z" fill="#FB622B"/>
<path d="M8.71497 13.2031C8.71497 10.9595 10.5338 9.14062 12.7775 9.14062H33.09C35.3336 9.14062 37.1525 10.9595 37.1525 13.2031V24.375H8.71497V13.2031Z" fill="#FB865D"/>
<path d="M42.2306 9.14062H44.7964C49.7561 9.14062 53.7766 13.1612 53.7766 18.1209V24.8561M53.7766 24.8561L48.6463 19.8205M53.7766 24.8561L58.4008 19.8205" stroke="#FB703F" stroke-width="3.20723" stroke-linecap="round" stroke-linejoin="round"/>
</g>
</g>
<defs>
<clipPath id="clip0_1_963">
<rect width="65" height="65" fill="white" transform="translate(0.589966)"/>
</clipPath>
<clipPath id="clip1_1_963">
<rect width="65" height="65" fill="white" transform="translate(0.589966)"/>
</clipPath>
</defs>
</svg>
