<svg width="66" height="65" viewBox="0 0 66 65" fill="none" xmlns="http://www.w3.org/2000/svg">
<g clip-path="url(#clip0_1_1126)">
<g clip-path="url(#clip1_1_1126)">
<path d="M53.6125 52.8125C53.6125 55.0561 51.7937 56.875 49.55 56.875H17.05C14.8064 56.875 12.9875 55.0561 12.9875 52.8125V12.1875C12.9875 9.94384 14.8064 8.125 17.05 8.125L49.55 8.12501C51.7937 8.12501 53.6125 9.94385 53.6125 12.1875V52.8125Z" fill="#3B88FB"/>
<path d="M53.6125 24.375H12.9875V12.1875C12.9875 9.94384 14.8064 8.125 17.05 8.125H49.55C51.7937 8.125 53.6125 9.94384 53.6125 12.1875V24.375Z" fill="#4C92FF"/>
<path d="M53.6125 52.8125C53.6125 55.0561 51.7937 56.875 49.55 56.875H17.05C14.8064 56.875 12.9875 55.0561 12.9875 52.8125V40.625H53.6125V52.8125Z" fill="#397EE5"/>
<g filter="url(#filter0_d_1_1126)">
<path d="M34.3176 19.3606C34.3176 18.2528 35.6361 17.6751 36.4505 18.4261L47.9583 29.0374C48.5158 29.5514 48.502 30.436 47.9291 30.9325L36.4214 40.9059C35.5982 41.6193 34.3176 41.0345 34.3176 39.9453V34.4069C23.9363 34.4069 19.7391 45.7032 19.7391 45.7032C19.7391 33.0972 23.1948 24.6161 34.3176 24.6161V19.3606Z" fill="white"/>
</g>
</g>
</g>
<defs>
<filter id="filter0_d_1_1126" x="16.8019" y="16.1288" width="34.503" height="33.4906" filterUnits="userSpaceOnUse" color-interpolation-filters="sRGB">
<feFlood flood-opacity="0" result="BackgroundImageFix"/>
<feColorMatrix in="SourceAlpha" type="matrix" values="0 0 0 0 0 0 0 0 0 0 0 0 0 0 0 0 0 0 127 0" result="hardAlpha"/>
<feOffset dy="0.979064"/>
<feGaussianBlur stdDeviation="1.46859"/>
<feComposite in2="hardAlpha" operator="out"/>
<feColorMatrix type="matrix" values="0 0 0 0 0.143018 0 0 0 0 0.620999 0 0 0 0 0.535112 0 0 0 0.4 0"/>
<feBlend mode="normal" in2="BackgroundImageFix" result="effect1_dropShadow_1_1126"/>
<feBlend mode="normal" in="SourceGraphic" in2="effect1_dropShadow_1_1126" result="shape"/>
</filter>
<clipPath id="clip0_1_1126">
<rect width="65" height="65" fill="white" transform="translate(0.800049)"/>
</clipPath>
<clipPath id="clip1_1_1126">
<rect width="65" height="65" fill="white" transform="translate(0.800049)"/>
</clipPath>
</defs>
</svg>
