<svg width="65" height="65" viewBox="0 0 65 65" fill="none" xmlns="http://www.w3.org/2000/svg">
<g clip-path="url(#clip0_1_1067)">
<g clip-path="url(#clip1_1_1067)">
<path d="M12.1875 12.1875C12.1875 9.94384 14.0064 8.125 16.25 8.125H48.75C50.9936 8.125 52.8125 9.94384 52.8125 12.1875V52.8125C52.8125 55.0561 50.9936 56.875 48.75 56.875H16.25C14.0064 56.875 12.1875 55.0561 12.1875 52.8125V12.1875Z" fill="#3B88FB"/>
<path d="M12.1875 40.625H52.8125V52.8125C52.8125 55.0561 50.9936 56.875 48.75 56.875H16.25C14.0064 56.875 12.1875 55.0561 12.1875 52.8125V40.625Z" fill="#397EE5"/>
<path d="M12.1875 12.1875C12.1875 9.94384 14.0064 8.125 16.25 8.125H48.75C50.9936 8.125 52.8125 9.94384 52.8125 12.1875V24.375H12.1875V12.1875Z" fill="#4C92FF"/>
<g filter="url(#filter0_d_1_1067)">
<path d="M19.2969 33.5156C19.2969 31.272 21.1158 29.4531 23.3594 29.4531H37.5781C39.8217 29.4531 41.6406 31.272 41.6406 33.5156V41.6406C41.6406 43.8842 39.8217 45.7031 37.5781 45.7031H23.3594C21.1158 45.7031 19.2969 43.8842 19.2969 41.6406V33.5156Z" fill="white"/>
</g>
<path d="M30.4688 37.5781C31.5906 37.5781 32.5 36.6687 32.5 35.5469C32.5 34.425 31.5906 33.5156 30.4688 33.5156C29.3469 33.5156 28.4375 34.425 28.4375 35.5469C28.4375 36.6687 29.3469 37.5781 30.4688 37.5781Z" fill="#3B88FB"/>
<path d="M29.6561 36.5625H31.2811L31.4438 40.6258C31.466 41.1795 31.023 41.6406 30.4688 41.6406C29.9146 41.6406 29.4716 41.1796 29.4937 40.6258L29.6561 36.5625Z" fill="#3B88FB"/>
<path d="M34.5312 30.4688V23.3594C34.5312 19.9939 37.2595 17.2656 40.625 17.2656C43.9905 17.2656 46.7188 19.9939 46.7188 23.3594V27.8075" stroke="white" stroke-width="2.03125" stroke-linecap="round"/>
</g>
</g>
<defs>
<filter id="filter0_d_1_1067" x="16.25" y="27.4219" width="28.4375" height="22.3438" filterUnits="userSpaceOnUse" color-interpolation-filters="sRGB">
<feFlood flood-opacity="0" result="BackgroundImageFix"/>
<feColorMatrix in="SourceAlpha" type="matrix" values="0 0 0 0 0 0 0 0 0 0 0 0 0 0 0 0 0 0 127 0" result="hardAlpha"/>
<feOffset dy="1.01562"/>
<feGaussianBlur stdDeviation="1.52344"/>
<feComposite in2="hardAlpha" operator="out"/>
<feColorMatrix type="matrix" values="0 0 0 0 0.1616 0 0 0 0 0.654332 0 0 0 0 0.565794 0 0 0 0.4 0"/>
<feBlend mode="normal" in2="BackgroundImageFix" result="effect1_dropShadow_1_1067"/>
<feBlend mode="normal" in="SourceGraphic" in2="effect1_dropShadow_1_1067" result="shape"/>
</filter>
<clipPath id="clip0_1_1067">
<rect width="65" height="65" fill="white"/>
</clipPath>
<clipPath id="clip1_1_1067">
<rect width="65" height="65" fill="white"/>
</clipPath>
</defs>
</svg>
