<svg width="65" height="65" viewBox="0 0 65 65" fill="none" xmlns="http://www.w3.org/2000/svg">
<g clip-path="url(#clip0_1_61)">
<g clip-path="url(#clip1_1_61)">
<path d="M10.1562 10.1562C10.1562 7.91259 11.9751 6.09375 14.2188 6.09375H46.7188C48.9624 6.09375 50.7812 7.91259 50.7812 10.1562V47.7344C50.7812 49.978 48.9624 51.7969 46.7188 51.7969H14.2188C11.9751 51.7969 10.1562 49.978 10.1562 47.7344V10.1562Z" fill="#3B88FB"/>
<path d="M10.1562 36.5625H50.7812V47.7344C50.7812 49.978 48.9624 51.7969 46.7188 51.7969H14.2188C11.9751 51.7969 10.1562 49.978 10.1562 47.7344V36.5625Z" fill="#397EE5"/>
<path d="M10.1562 10.1562C10.1562 7.91259 11.9751 6.09375 14.2188 6.09375H46.7188C48.9624 6.09375 50.7812 7.91259 50.7812 10.1562V21.3281H10.1562V10.1562Z" fill="#4C92FF"/>
<g filter="url(#filter0_d_1_61)">
<path d="M34.5312 38.5938C34.5312 36.3501 36.3501 34.5312 38.5938 34.5312H54.8438C57.0874 34.5312 58.9062 36.3501 58.9062 38.5938V54.8438C58.9062 57.0874 57.0874 58.9062 54.8438 58.9062H38.5938C36.3501 58.9062 34.5312 57.0874 34.5312 54.8438V38.5938Z" fill="url(#paint0_linear_1_61)"/>
</g>
<path d="M53.8605 47.7671L49.7651 43.6719M53.8605 47.7671L49.7651 51.7969M53.8605 47.7671H42.6885C41.5667 47.7671 40.6572 46.8577 40.6572 45.7358V41.6406" stroke="white" stroke-width="2.53906" stroke-linecap="round" stroke-linejoin="round"/>
<path d="M20.3125 16.25L25.9724 29.4531L30.4688 16.8002L35.0281 29.4531L40.625 16.25" stroke="white" stroke-width="4.0625" stroke-linecap="round" stroke-linejoin="round"/>
</g>
</g>
<defs>
<filter id="filter0_d_1_61" x="31.4844" y="31.4844" width="30.4688" height="30.4688" filterUnits="userSpaceOnUse" color-interpolation-filters="sRGB">
<feFlood flood-opacity="0" result="BackgroundImageFix"/>
<feColorMatrix in="SourceAlpha" type="matrix" values="0 0 0 0 0 0 0 0 0 0 0 0 0 0 0 0 0 0 127 0" result="hardAlpha"/>
<feOffset/>
<feGaussianBlur stdDeviation="1.52344"/>
<feComposite in2="hardAlpha" operator="out"/>
<feColorMatrix type="matrix" values="0 0 0 0 0.120149 0 0 0 0 0.346717 0 0 0 0 0.69 0 0 0 0.4 0"/>
<feBlend mode="normal" in2="BackgroundImageFix" result="effect1_dropShadow_1_61"/>
<feBlend mode="normal" in="SourceGraphic" in2="effect1_dropShadow_1_61" result="shape"/>
</filter>
<linearGradient id="paint0_linear_1_61" x1="46.7188" y1="34.5312" x2="46.7188" y2="58.9062" gradientUnits="userSpaceOnUse">
<stop stop-color="#3692E9"/>
<stop offset="1" stop-color="#2365C9"/>
</linearGradient>
<clipPath id="clip0_1_61">
<rect width="65" height="65" fill="white"/>
</clipPath>
<clipPath id="clip1_1_61">
<rect width="65" height="65" fill="white"/>
</clipPath>
</defs>
</svg>
